EBGaramond-AllSC.sfdir

StartChar: asterisk
Encoding: 42 42 1008
Width: 340
VWidth: 0
Flags: W
HStem: 372 298
VStem: 140 34<561.268 669.947> 167 34<372.053 480.732>
LayerCount: 2
Fore
SplineSet
266 610 m 0xc0
 274 617 286 615 293 607 c 0
 298 599 293 590 286 583 c 2
 213 525 l 1
 239 513 264 501 295 483 c 0
 304 479 310 468 306 459 c 0
 302 451 291 449 282 452 c 0
 250 466 221 476 195 487 c 1
 198 459 200 429 201 394 c 0
 201 383 196 373 185 372 c 0
 176 371 168 381 167 390 c 0xa0
 162 425 158 455 154 482 c 1
 131 466 105 450 75 432 c 0
 67 425 55 427 48 435 c 0
 43 443 48 452 55 459 c 2
 128 517 l 1
 102 529 77 541 46 559 c 0
 37 563 31 574 35 583 c 0
 39 591 50 593 59 590 c 0
 91 576 120 566 146 555 c 1
 143 583 141 613 140 648 c 0
 140 659 145 669 156 670 c 0
 165 671 173 661 174 652 c 0
 179 617 183 587 187 560 c 1
 210 576 236 592 266 610 c 0xc0
EndSplineSet
Validated: 1
EndChar

StartChar: three
Encoding: 51 51 84
Width: 372
VWidth: 0
Flags: W
HStem: -190 44<61.3664 154.993> 358 55.0121<112.537 203.184>
VStem: 219 70<235.612 342.668> 243 76<-41.8585 84.5313>
LayerCount: 2
Fore
SplineSet
319 53 m 0xd0
 319 -68 234 -130 155 -169 c 0
 131 -181 98 -190 86 -190 c 0
 75 -190 59 -183 59 -176 c 0
 59 -166 74 -146 86 -146 c 0
 95 -146 136 -145 153 -136 c 0
 204 -109 243 -79 243 17 c 0xd0
 243 49 231 112 157 112 c 0
 142 112 118 105 95 92 c 0
 88 88 76 94 78 101 c 24
 84 118 97 128 109 135 c 0
 131 148 150 160 179 186 c 0
 197 202 219 239 219 292 c 0
 219 330 194 358 155 358 c 0
 110 358 88 333 58 308 c 0
 54 305 51 299 46 301 c 24
 40 303 35 309 38 315 c 0
 57.8378080527 352.6918353 116.045632368 413.012141729 181.395697865 413.012141729 c 0
 181.929993507 413.012141729 182.464766574 413.008109597 183 413 c 0
 247 412 289 372 289 309 c 0xe0
 289 277 273 212 195 167 c 0
 191 165 191 161 196 161 c 0
 288 159 319 97 319 53 c 0xd0
EndSplineSet
Validated: 1
Substitution2: "'tnum' Tabular Numbers lookup 7 subtable" three.taboldstyle
Substitution2: "'lnum' Lining Figures lookup 5 subtable" three.lnum
EndChar

StartChar: equal
Encoding: 61 61 99
Width: 590
VWidth: 0
Flags: W
HStem: 143 50<53.2358 534.448> 314 50<53.2358 534.448>
LayerCount: 2
Fore
SplineSet
74 193 m 26
 527 193 l 26
 534.451171875 193 542.523817893 186.010605258 540 179 c 24
 533.724609375 161.567382812 527.528320312 143 509 143 c 26
 64 143 l 26
 56.80859375 143 50 149 50 155 c 0
 50 164 56.4716796875 193 74 193 c 26
74 364 m 26
 527 364 l 26
 534.451171875 364 542.523817893 357.010605258 540 350 c 24
 533.724609375 332.567382812 527.528320312 314 509 314 c 26
 64 314 l 26
 56.80859375 314 50 320 50 326 c 0
 50 335 56.4716796875 364 74 364 c 26
EndSplineSet
Validated: 1
EndChar

StartChar: j
Encoding: 106 106 16
Width: 270
VWidth: 0
Flags: W
HStem: -175 43<-8.48442 84.4661> 429 23<40.6897 71.1651 213.74 244.915>
VStem: 105 75<-73.1229 409.459>
LayerCount: 2
Fore
SplineSet
105 376 m 0
 105 390 98.6809 396.449 89 405 c 24
 74.3506 417.94 62 422 45 429 c 0
 38 432 39 452 45 452 c 0
 88 452 105.992 450 145 450 c 24
 182.059 450 199 452 240 452 c 0
 249 452 247 432 240 429 c 0
 223 422 208 417 194 404 c 0
 186 398 180 389 180 376 c 0
 180 326 180 186 180 136 c 0
 180 36 177.359 8.30371 175 -9 c 0
 169 -53 156.482 -91.4158 121 -128 c 24
 89.2676 -160.718 43 -175 14 -175 c 0
 -13 -175 -32 -175 -56 -167 c 0
 -71 -162 -88.5474 -153.652 -89 -136 c 24
 -89.5625 -114.049 -78.1545 -97.7154 -58 -89 c 24
 -41.6982 -81.9502 -23 -93 -15 -104 c 0
 -8 -113 12 -132 30 -132 c 0
 56 -132 74.8325 -126.235 85 -112 c 0
 95 -98 101.57 -80.1239 103 -52 c 0
 106 7 105 65 105 86 c 0
 105 136 105 326 105 376 c 0
EndSplineSet
Validated: 33
EndChar

StartChar: n
Encoding: 110 110 6
Width: 631
VWidth: 0
Flags: W
HStem: -14 21G<510.919 529.176> -3 24<62.3025 102.76 192.857 225.931> 425 24<52.9092 103.383 431.989 469.611 576.188 609.063>
VStem: 129 46<86.0745 336.475> 507 40<109.998 403.448>
LayerCount: 2
Fore
SplineSet
67 -3 m 8x78
 57.6396 -3 61 20 67 21 c 0x78
 85 24 95.6464 24.6143 107 37 c 24
 119.251 50.3643 121 64 122 81 c 8
 128.414 190.046 129 248 129 361 c 0
 129 381 131 387 123 397 c 0
 102 422 70 424 59 425 c 0
 50 425 50 449 59 449 c 0
 113 447 152 449 203 449 c 0
 211 449 213.485 440.537 219 434 c 24
 325.064 308.28 379.723 232.937 489 110 c 24
 493.664 104.753 506 83 507 110 c 0
 511 214 508 266 504 378 c 0
 503 409 448 420 435 425 c 0
 431 426 430 447 435 447 c 0
 471 447 488.645 443 523 443 c 24
 555.407 443 576 447 606 447 c 0
 610 447 613 425 606 425 c 0
 586 422 577 414 571 409 c 0
 565 405 552.779 394.853 552 382 c 24
 543.293 238.341 547 159 547 13 c 0
 547 -2 536.351 -14 522 -14 c 24xb8
 499.839 -14 480 4 472 13 c 0
 371 137 313 205 204 329 c 0
 184 351 180 341 179 332 c 0
 177 271 173 135 175 73 c 0
 176 60 177.011 50.1609 186 40 c 24
 196.291 28.3672 200 25 221 21 c 0
 228 20 230 -3 218 -3 c 0
 184 -3 171.681 1 142 1 c 24
 112.708 1 96 -3 67 -3 c 8x78
EndSplineSet
Validated: 33
EndChar

StartChar: q
Encoding: 113 113 10
Width: 602
VWidth: 0
Flags: W
HStem: -218 38<675.42 947> 430 30<222.76 354.791>
VStem: 34 84<129.701 308.083> 463 84<140.671 326.921>
LayerCount: 2
Fore
SplineSet
288 430 m 0
 184 430 117 340 118 241 c 0
 118 120 187 11 304 11 c 0
 411 11 463 121 463 220 c 0
 463 329 404 430 288 430 c 0
240 -31 m 0
 224 -22 213 -15 202 -13 c 0
 152 -1 34 90 34 207 c 0
 34 347 143 460 290 460 c 0
 413 460 547 377 547 253 c 0
 547 86 429 21 373 -7 c 0
 362 -13 369 -21 379 -27 c 0
 521 -117 682 -180 790 -180 c 0
 889 -180 1001 -182 1116 -85 c 0
 1120 -82 1126 -81 1130 -85 c 24
 1134 -90 1136 -97 1131 -101 c 0
 1011 -217 827 -220 787 -218 c 0
 743 -217 576 -217 240 -31 c 0
EndSplineSet
Validated: 33
EndChar

StartChar: w
Encoding: 119 119 23
Width: 719
VWidth: 0
Flags: W
HStem: 425 23<9.83059 40.5764 151.975 197.041 218.111 254.615 471.288 519.559 540.984 576.861 656.654 698.004>
LayerCount: 2
Fore
SplineSet
621 362 m 4
 576 233 556 159 511 32 c 0
 504 12 475 -22 470 -22 c 0
 467 -22 451.192 -14.4854 446 -4 c 24
 410.388 67.916 401 101 367 186 c 0
 364 194 362 204 356 188 c 0
 326 107 309 84 280 2 c 0
 276 -8 255 -23 249 -23 c 0
 247 -23 226 -9 223 -0 c 0
 71 376 l 12
 66.1875 387.476 63.291 394.723 54 403 c 28
 41.2139 414.392 32 420 16 425 c 4
 7 427 6 448 16 448 c 4
 47 448 66.6084 445 99 445 c 28
 134.899 445 162 448 191 448 c 4
 201 448 200 426 190 425 c 4
 164 424 146 413 146 405 c 4
 146 396 158 369 158 369 c 12
 202.123 256.781 224.669 192.472 273 82 c 24
 274.727 78.0537 282 77 284 81 c 0
 305 134 316 166 338 222 c 0
 346 243 345 239 337 259 c 0
 321 298 315.712 324.375 297 364 c 28
 289.005 380.932 284 391 269 403 c 12
 253.472 415.423 242 423 223 425 c 4
 214 425 217 448 223 448 c 4
 246 448 266.285 445 294 445 c 28
 323.663 445 351 448 370 448 c 4
 379 448 378 427 370 425 c 4
 359 423 353 413 353 405 c 4
 353 396 368 355 378 329 c 0
 386 310 383 314 390 334 c 0
 401 361 414 392 414 405 c 4
 414 413 407 423 396 425 c 4
 389 427 390 448 396 448 c 4
 418 448 427.075 445 447 445 c 28
 473.156 445 493 448 514 448 c 4
 524 448 522 428 514 426 c 4
 483 420 469 420 450 390 c 4
 434 363 418 327 407 297 c 0
 400 279 400.965 277.424 405 266 c 24
 431.367 191.349 450.007 150.502 484 79 c 24
 485.498 75.8496 490.904 79.6886 492 83 c 24
 528.285 192.618 547.598 254.885 579 366 c 28
 583.158 380.714 583 396 583 405 c 4
 583 413 565 422 547 425 c 12
 538.152 426.475 538.03 448 547 448 c 20
 576 448 593.947 445 624 445 c 28
 651.325 445 665 448 694 448 c 4
 698 448 703 426 694 425 c 4
 681 422 669 421 652 411 c 4
 637 401 628 382 621 362 c 4
EndSplineSet
Validated: 33
EndChar

StartChar: y
Encoding: 121 121 24
Width: 494
VWidth: 0
Flags: W
HStem: -4 27<127.655 172.989 302.406 347.107> 426 24<23.6411 60.8134 166.547 201.245 302.585 337.089 417.265 457.175>
VStem: 200 75<47.4598 248.634>
LayerCount: 2
Fore
SplineSet
30 426 m 0
 22 427 17.5673828125 450 27 450 c 16
 59 450 78.23046875 448 111 448 c 24
 144.548828125 448 158 450 197 450 c 0
 204 450 204 429 197 428 c 0
 168 424 155 412 170 385 c 0
 206 323 213 319 240 279 c 0
 263 245 253 247 277 279 c 0
 300 311 326 349 343 382 c 0
 355 406 333 423 307 427 c 0
 299 428 299.607421875 451 309 451 c 16
 342 451 352.919921875 451 381 451 c 16
 412 451 424 452 455 452 c 8
 463.190429688 452 460 432 455 431 c 0
 415 425 384 382 370 361 c 0
 338 308 328 303 294 246 c 0
 276 216 274 219 275 193 c 0
 276 160 274 112 275 82 c 0
 275 68 277.217691191 56.7870187651 288 47 c 24
 304.5390625 31.98828125 319 27 340 23 c 0
 352 20 351 -4 340 -4 c 0
 301 -4 279.680664062 2 241 2 c 24
 199.204101562 2 171 -4 134 -4 c 0
 126 -4 122 20 134 23 c 0
 155 27 170.083353349 31.8775431457 187 47 c 24
 197.85546875 56.7041015625 200 68 200 82 c 0
 200 189 200 158 200 193 c 0
 200 220 191 229 188 235 c 0
 158 289 146 309 110 359 c 4
 98 375 70 424 30 426 c 0
EndSplineSet
Validated: 33
EndChar

StartChar: acircumflex
Encoding: 226 226 93
Width: 555
VWidth: 0
Flags: W
HStem: -3 24<32.5977 66.9576 182.452 212.952 498.912 529.715> 139 27<198.819 333.7> 443 20G<310.5 314> 502 201
VStem: 182 212
LayerCount: 2
Fore
SplineSet
270 337 m 4
 253 295 221 224 199 176 c 4
 195 167 200 166 212 166 c 6
 329 166 l 6
 339 166 340 166 337 176 c 4
 330 203 293 306 282 337 c 4
 276 352 276 352 270 337 c 4
37 -3 m 4
 29 -3 31 19 37 21 c 4
 58 28 74.5888671875 34.3388671875 94 50 c 28
 109.844726562 62.783203125 116.27734375 73.6044921875 125 92 c 28
 173.797851562 194.907226562 193 243 241 360 c 4
 243 366 245.872070312 375.716796875 248 386 c 28
 250.559570312 398.369140625 252 417 253 418 c 4
 262 420 292 442 298 449 c 4
 306 458 309 463 312 463 c 4
 316 463 317 460 319 454 c 4
 367 323 397 232 444 107 c 4
 452 84 461 69 479 50 c 4
 491 37 507 25 524 21 c 4
 531 19 536 -3 524 -3 c 12
 486.508789062 -3 466 2 428 2 c 12
 387.393554688 2 357 -3 324 -3 c 12
 314.631835938 -3 319 20 325 21 c 4
 341 24 355.110351562 31.9873046875 365 48 c 28
 373.413085938 61.6201171875 370 76 367 89 c 4
 362 114 363 105 353 132 c 4
 351 138 348 139 334 139 c 6
 192 139 l 14
 185.381835938 139 184 136 180 127 c 4
 168 96 167.46484375 101.5546875 164 84 c 28
 161.506835938 71.3681640625 161 58 165 51 c 4
 176 34 194 24 207 21 c 4
 216 19 216 -3 207 -3 c 4
 167 -3 146.659179688 2 108 2 c 28
 80.2412109375 2 64 -3 37 -3 c 4
EndSplineSet
Refer: 90 710 S 1 0 0 1 455 55 2
Validated: 33
EndChar

StartChar: ntilde
Encoding: 241 241 169
Width: 631
VWidth: 0
Flags: W
HStem: -14 21G<510.919 529.175> -3 24<62.3025 102.76 192.857 225.931> 425 24<52.9092 103.383 431.989 469.611 576.188 609.063> 532.819 66<278.142 412.819> 545.819 67<250.02 385.472>
VStem: 129 46<86.0745 336.475> 198.557 266 507 40<109.998 403.448>
LayerCount: 2
Fore
SplineSet
67 -3 m 8x67
 57.6396484375 -3 61 20 67 21 c 0x67
 85 24 95.646484375 24.6142578125 107 37 c 24
 119.250976562 50.3642578125 121 64 122 81 c 8
 128.4140625 190.045898438 129 248 129 361 c 0
 129 381 131 387 123 397 c 0
 102 422 70 424 59 425 c 0
 50 425 50 449 59 449 c 0
 113 447 152 449 203 449 c 0
 211 449 213.485351562 440.537109375 219 434 c 24
 325.064453125 308.280273438 379.72265625 232.936523438 489 110 c 24
 493.6640625 104.752929688 506 83 507 110 c 0
 511 214 508 266 504 378 c 0
 503 409 448 420 435 425 c 0
 431 426 430 447 435 447 c 0
 471 447 488.64453125 443 523 443 c 24
 555.407226562 443 576 447 606 447 c 0
 610 447 613 425 606 425 c 0
 586 422 577 414 571 409 c 0
 565 405 552.779296875 394.852539062 552 382 c 24
 543.29296875 238.340820312 547 159 547 13 c 0
 547 -2 536.350585938 -14 522 -14 c 24xa7
 499.838867188 -14 480 4 472 13 c 0
 371 137 313 205 204 329 c 0
 184 351 180 341 179 332 c 0
 177 271 173 135 175 73 c 0
 176 60 177.010742188 50.1611328125 186 40 c 24
 196.291015625 28.3671875 200 25 221 21 c 0
 228 20 230 -3 218 -3 c 0
 184 -3 171.680664062 1 142 1 c 24
 112.708007812 1 96 -3 67 -3 c 8x67
EndSplineSet
Refer: 350 732 N 1 0 0 1 514.557 34.8194 2
Validated: 33
EndChar

StartChar: ydieresis
Encoding: 255 255 178
Width: 494
VWidth: 0
Flags: W
HStem: -4 27<127.655 172.989 302.406 347.107> 426 24<23.6411 59.0781 166.547 201.245 302.585 337.089 417.265 457.175> 512 100<125.202 203.798 302.202 380.798>
VStem: 114.5 100<522.702 601.298> 200 75<47.4598 248.634> 291.5 100<522.702 601.298>
LayerCount: 2
Fore
SplineSet
341.5 612 m 4xe4
 366.5 612 391.5 587 391.5 562 c 4
 391.5 537 366.5 512 341.5 512 c 4
 316.5 512 291.5 537 291.5 562 c 4
 291.5 587 316.5 612 341.5 612 c 4xe4
164.5 612 m 4
 189.5 612 214.5 587 214.5 562 c 4
 214.5 537 189.5 512 164.5 512 c 4
 139.5 512 114.5 537 114.5 562 c 4xf4
 114.5 587 139.5 612 164.5 612 c 4
30 426 m 0
 22 427 17.5673828125 450 27 450 c 16
 59 450 78.23046875 448 111 448 c 24
 144.548828125 448 158 450 197 450 c 0
 204 450 204 429 197 428 c 0
 168 424 155 412 170 385 c 0
 206 323 213 319 240 279 c 0
 263 245 253 247 277 279 c 0
 300 311 326 349 343 382 c 4
 355 406 333 423 307 427 c 4
 299 428 299.607421875 451 309 451 c 20
 342 451 352.919921875 451 381 451 c 20
 412 451 424 452 455 452 c 12
 463.190429688 452 460 432 455 431 c 4
 415 425 384 382 370 361 c 4
 338 308 328 303 294 246 c 0
 276 216 274 219 275 193 c 0
 276 160 274 112 275 82 c 0
 275 68 277.217773438 56.787109375 288 47 c 24
 304.5390625 31.98828125 319 27 340 23 c 0
 352 20 351 -4 340 -4 c 0
 301 -4 279.680664062 2 241 2 c 24
 199.204101562 2 171 -4 134 -4 c 0
 126 -4 122 20 134 23 c 0
 155 27 170.083007812 31.8779296875 187 47 c 24
 197.85546875 56.7041015625 200 68 200 82 c 0
 200 189 200 158 200 193 c 0xec
 200 220 191 229 188 235 c 0
 158 289 137 309 101 359 c 0
 89 375 70 424 30 426 c 0
EndSplineSet
Validated: 33
EndChar

StartChar: amacron
Encoding: 257 257 180
Width: 555
Flags: W
HStem: -3 24<32.5977 66.9577 182.452 212.952 498.912 529.715> 139 27<198.819 333.7> 443 20G<310.5 314> 529 50<149.236 400.448>
LayerCount: 2
Fore
SplineSet
170 579 m 2
 393 579 l 2
 400.45117 579 408.5234 572.01074 406 565 c 0
 399.72461 547.5674 393.5283 529 375 529 c 2
 160 529 l 2
 152.80859 529 146 535 146 541 c 0
 146 550 152.47168 579 170 579 c 2
270 337 m 0
 253 295 221 224 199 176 c 0
 195 167 200 166 212 166 c 2
 329 166 l 2
 339 166 340 166 337 176 c 0
 330 203 293 306 282 337 c 0
 276 352 276 352 270 337 c 0
37 -3 m 0
 29 -3 31 19 37 21 c 0
 58 28 74.5889 34.3389 94 50 c 0
 109.8447 62.7832 116.2773 73.6045 125 92 c 0
 173.7979 194.907 193 243 241 360 c 0
 243 366 245.87207 375.7168 248 386 c 0
 250.55957 398.3691 252 417 253 418 c 0
 262 420 292 442 298 449 c 0
 306 458 309 463 312 463 c 0
 316 463 317 460 319 454 c 2
 444 107 l 2
 452 84 461 69 479 50 c 0
 491 37 507 25 524 21 c 0
 531 19 536 -3 524 -3 c 0
 486.5088 -3 466 2 428 2 c 0
 387.3936 2 357 -3 324 -3 c 0
 314.63184 -3 319 20 325 21 c 0
 341 24 355.1104 31.9873 365 48 c 0
 373.41309 61.6201 370 76 367 89 c 0
 362 114 363 105 353 132 c 0
 351 138 348 139 334 139 c 2
 192 139 l 2
 185.38184 139 184 136 180 127 c 0
 168 96 167.4648 101.5547 164 84 c 0
 161.50684 71.3682 161 58 165 51 c 0
 176 34 194 24 207 21 c 0
 216 19 216 -3 207 -3 c 0
 167 -3 146.6592 2 108 2 c 0
 80.2412 2 64 -3 37 -3 c 0
EndSplineSet
Validated: 33
EndChar

StartChar: aogonek
Encoding: 261 261 184
Width: 555
Flags: W
HStem: -284.833 66<280.851 350.939> -3 24<32.5977 66.9577 182.452 212.952 329.5 329.5 498.912 529.715> 139 27<198.819 333.7> 443 20G<310.5 314>
VStem: 191.5 74<-203.85 -106.317>
LayerCount: 2
Fore
SplineSet
329.5 20.167 m 1
 355.5 20.167 l 1
 287.5 -36.833 265.5 -90.833 265.5 -149.833 c 0
 265.5 -193.833 291.5 -218.833 325.5 -218.833 c 0
 353.5176 -218.833 371.5 -205.833 380.5 -198.833 c 0
 384.63086 -195.62011 393.5 -198.833 392.5 -204.833 c 0
 390.52734 -216.6699 383.2002 -228.0166 376.5 -235.833 c 0
 370.5 -242.833 342.5 -284.833 292.5 -284.833 c 0
 234.8311 -284.833 191.5 -250.833 191.5 -176.833 c 0
 191.5 -123.833 242.5 -36.833 329.5 20.167 c 1
270 337 m 0
 253 295 221 224 199 176 c 0
 195 167 200 166 212 166 c 2
 329 166 l 2
 339 166 340 166 337 176 c 0
 330 203 293 306 282 337 c 0
 276 352 276 352 270 337 c 0
37 -3 m 0
 29 -3 31 19 37 21 c 0
 58 28 74.5889 34.3389 94 50 c 0
 109.8447 62.7832 116.2773 73.6045 125 92 c 0
 173.7979 194.907 193 243 241 360 c 0
 243 366 245.87207 375.7168 248 386 c 0
 250.55957 398.3691 252 417 253 418 c 0
 262 420 292 442 298 449 c 0
 306 458 309 463 312 463 c 0
 316 463 317 460 319 454 c 2
 444 107 l 2
 452 84 461 69 479 50 c 0
 491 37 507 25 524 21 c 0
 531 19 536 -3 524 -3 c 0
 486.5088 -3 466 2 428 2 c 0
 387.3936 2 357 -3 324 -3 c 0
 314.63184 -3 319 20 325 21 c 0
 341 24 355.1104 31.9873 365 48 c 0
 373.41309 61.6201 370 76 367 89 c 0
 362 114 363 105 353 132 c 0
 351 138 348 139 334 139 c 2
 192 139 l 2
 185.38184 139 184 136 180 127 c 0
 168 96 167.4648 101.5547 164 84 c 0
 161.50684 71.3682 161 58 165 51 c 0
 176 34 194 24 207 21 c 0
 216 19 216 -3 207 -3 c 0
 167 -3 146.6592 2 108 2 c 0
 80.2412 2 64 -3 37 -3 c 0
EndSplineSet
Validated: 37
EndChar

StartChar: cacute
Encoding: 263 263 186
Width: 429
Flags: W
HStem: -14 35<199.694 328.613> 427 31<184.191 329.172>
VStem: 12 83<132.261 317.163>
LayerCount: 2
Fore
SplineSet
231 517 m 0
 225.60938 509.52148 213 495 204 495 c 0
 194.78027 495 191 499 191 508 c 0
 191 523 263 649 284 683 c 0
 295.085 700.9473 312.4961 710.2646 335 710 c 0
 352.1768 709.797852 369 696 369 682 c 0
 369 663 311 628 231 517 c 0
263 458 m 0
 285 458 322 454 335 450 c 0
 346 446 380 441 392 437 c 0
 397 436 399 426 401 416 c 1
 403 395 405 377 406 340 c 0
 406 334 399 323 393 324 c 0
 385 325 373 330 371 346 c 0
 368 374 354 393 346 401 c 0
 332 415 289 427 247 427 c 0
 146 427 95 329 95 239 c 0
 95 133 154.21 24.955 261 21 c 0
 288 20 319 31 345 47 c 0
 371 62 379 86 383 99 c 0
 385 107 408 112 413 112 c 0
 422 112 421 102 420 94 c 0
 417 77 397 31 387 15 c 0
 380 2 297.8174 -14 239 -14 c 0
 117 -14 12 94.294 12 222 c 0
 12 357 128.636 458 263 458 c 0
EndSplineSet
Validated: 33
EndChar

StartChar: ccircumflex
Encoding: 265 265 188
Width: 429
Flags: W
HStem: -14 35<199.694 328.613> 427 31<184.191 329.172>
VStem: 12 83<132.261 317.163>
LayerCount: 2
Fore
SplineSet
193 536 m 2
 187.16797 528.00195 177 518 165 518 c 0
 157 518 151.0977 527.41699 157 539 c 2
 157 539 213.5 652.761 235 690 c 0
 245.5 708.1865 256 719 263 719 c 0
 270 719 280.5 708.1865 291 690 c 0
 316 646.6992 369 539 369 539 c 2
 374.90234 527.417 369 518 361 518 c 0
 349 518 337.3809 528.5137 332 536 c 2
 263 632 l 1
 193 536 l 2
263 458 m 0
 285 458 322 454 335 450 c 0
 346 446 380 441 392 437 c 0
 397 436 399 426 401 416 c 1
 403 395 405 377 406 340 c 0
 406 334 399 323 393 324 c 0
 385 325 373 330 371 346 c 0
 368 374 354 393 346 401 c 0
 332 415 289 427 247 427 c 0
 146 427 95 329 95 239 c 0
 95 133 154.21 24.955 261 21 c 0
 288 20 319 31 345 47 c 0
 371 62 379 86 383 99 c 0
 385 107 408 112 413 112 c 0
 422 112 421 102 420 94 c 0
 417 77 397 31 387 15 c 0
 380 2 297.8174 -14 239 -14 c 0
 117 -14 12 94.294 12 222 c 0
 12 357 128.636 458 263 458 c 0
EndSplineSet
Validated: 33
EndChar

StartChar: cdotaccent
Encoding: 267 267 190
Width: 429
Flags: W
HStem: -14 35<199.694 328.613> 427 31<184.191 329.172> 518 101<221.617 304.323>
VStem: 12 83<132.261 317.163> 212.5 101<527.117 609.823>
LayerCount: 2
Fore
SplineSet
212.5 568 m 0
 212.5 597 234.5 619 262.5 619 c 0
 291.5 619 313.5 597 313.5 568 c 0
 313.5 540 291.5 518 262.5 518 c 0
 234.5 518 212.5 540 212.5 568 c 0
263 458 m 0
 285 458 322 454 335 450 c 0
 346 446 380 441 392 437 c 0
 397 436 399 426 401 416 c 1
 403 395 405 377 406 340 c 0
 406 334 399 323 393 324 c 0
 385 325 373 330 371 346 c 0
 368 374 354 393 346 401 c 0
 332 415 289 427 247 427 c 0
 146 427 95 329 95 239 c 0
 95 133 154.21 24.955 261 21 c 0
 288 20 319 31 345 47 c 0
 371 62 379 86 383 99 c 0
 385 107 408 112 413 112 c 0
 422 112 421 102 420 94 c 0
 417 77 397 31 387 15 c 0
 380 2 297.8174 -14 239 -14 c 0
 117 -14 12 94.294 12 222 c 0
 12 357 128.636 458 263 458 c 0
EndSplineSet
Validated: 33
EndChar

StartChar: Dcroat
Encoding: 272 272 988
Width: 519
VWidth: 0
Flags: W
HStem: -3 36<172.032 337.854> 0 24<18.1875 49.5789> 317 36<46.0087 387.504> 422 31<142.997 312.128>
VStem: 83 75<45.4952 399.614> 421 85<131.07 322.825>
LayerCount: 2
Fore
SplineSet
70 353 m 26x3c
 377 353 l 26
 384 353 393 346 390 339 c 24
 383 326 374 317 359 317 c 26
 60 317 l 26
 51 317 46 329 46 335 c 0
 46 344 58 353 70 353 c 26x3c
EndSplineSet
Refer: 43 68 N 1 0 0 1 0 0 2
Validated: 5
EndChar

StartChar: ebreve
Encoding: 277 277 198
Width: 421
Flags: W
HStem: -3 24<11.2984 48.2279> 3 36<164.786 334.559> 410 41<161.645 328.992> 429 21<22.3123 57.3167> 480 55<152.618 259.382> 600 20G<109 119 293 303>
VStem: 79 75<45.5227 217.677 253 406.614> 99 32<566.396 619.922> 281 32<567.031 619.922> 347 19<347.096 375.298>
LayerCount: 2
Fore
SplineSet
131 599 m 0x0dc0
 144 577 146 535 206 535 c 0
 266 535 268 577 281 599 c 0
 286 608 288 620 298 620 c 0
 308 620 313 609 313 596 c 0
 313 532 276 480 206 480 c 0
 136 480 99 521 99 596 c 0
 99 609 104 620 114 620 c 0
 124 620 126 608 131 599 c 0x0dc0
257 216 m 0
 229 220 204.1445 222.14941 171 217 c 0
 161.73535 215.56055 154 212 154 200 c 0
 154 158 155 129 156 90 c 0
 157 62 169 39 199 39 c 2
 287 39 l 2
 290 39 326 44 335 51 c 0
 347 61 362 86 367 97 c 0
 370 103 375.5498 104.26855 382 104 c 0
 386.69238 103.804688 391 101 391 96 c 0
 388 69 380 32 374 10 c 0
 373 4 372 -2 365 -2 c 0
 270.21 -2 190 3 122 3 c 0x6ec0
 88 3 15 -3 15 -3 c 2
 10 -3 9 20 15 21 c 0
 37 27 45.6494 28.99512 60 42 c 0
 72.0195 52.8926 79 62 79 79 c 2
 79 357 l 2
 79 376 78 399 70 407 c 0
 57 422 54 421 27 429 c 0
 21 430 18.80957 450 27 450 c 0x9ec0
 56 450 76.4004 447.90039 108 448 c 0
 199.6572 448.290039 325 452 343 451 c 0
 347 451 354 450 355 445 c 0
 360 419 366 377 366 353 c 0
 366 349 359 347 355 347 c 0
 350 347 349 349 347 354 c 0
 342 369 334 385 327 392 c 0
 315 406 302 410 285 410 c 2
 179 410 l 2
 171 410 163 401 162 392 c 0
 161 386 157 358 156 339 c 0
 155 306 154 302 154 268 c 0x2ec0
 154 261 155 253 161 253 c 2
 248 253 l 2
 259 253 270 256 278 263 c 0
 284 269 287 272 290 281 c 0
 292 284 301 294 304 294 c 0
 308 294 314 289 313 283 c 0
 310 248 311 217 313 182 c 0
 314 176 313 170 307 170 c 0
 296.793 170 291 185 289 189 c 0
 283 210 268 214 257 216 c 0
EndSplineSet
Validated: 33
EndChar

StartChar: gcircumflex
Encoding: 285 285 206
Width: 507
Flags: W
HStem: -12 36<204.672 351.615> 178 34<300.377 373.835 453.411 491.445> 422 32<207.383 359.691>
VStem: 20 84<132.931 310.158> 381 75<45.6252 162.706> 381 62<52.1408 156.612>
LayerCount: 2
Fore
SplineSet
220 532 m 2xf0
 214.16797 524.00195 204 514 192 514 c 0
 184 514 178.0977 523.41699 184 535 c 2
 184 535 240.5 648.761 262 686 c 0
 272.5 704.1865 283 715 290 715 c 0
 297 715 307.5 704.1865 318 686 c 0
 343 642.6992 396 535 396 535 c 2
 401.90234 523.417 396 514 388 514 c 0
 376 514 364.3809 524.5137 359 532 c 2
 290 628 l 1
 220 532 l 2xf0
272 24 m 0
 307 24 348 39 360 46 c 0
 377 57 381 78 381 102 c 0xf8
 381 123 385 149 379 157 c 0
 366 172 326 178 312 178 c 0
 305 178 300 194 298 204 c 0
 298 207 298 212 301 212 c 0
 341.5771 212 367 209 405 209 c 0
 435.4297 209 458 211 483 211 c 0
 487.21875 211 492 209 492 205 c 0
 492 194.1221 490 180 485 178 c 0
 465 172 448 163 446 145 c 0
 443 117 442.66211 101.7129 443 74 c 0xf4
 443.0556641 69.43555 444.67773 66.92969 447 63 c 0
 449.82031 58.22754 456 55 456 52 c 0xf8
 456 48 451.62988 42.03613 446 39 c 0
 416.3398 23.0039 399.3525 13.4287 367 4 c 0
 330.5596 -6.6201 297 -12 271 -12 c 0
 137.169 -12 20 88.169 20 222 c 0
 20 357 151.167 454 290 454 c 0
 341 454 373.2998 450 404 440 c 0
 416.7861 435.83496 426 432 429 420 c 0
 436.10059 391.5996 442 360 442 342 c 0
 442 335 437 328 431 328 c 0
 417.1514 328 404 339 401 347 c 0
 396 361 389 379 378 393 c 0
 369 403 341 423 275 422 c 0
 177.0469 420.51562 104 342 104 238 c 0
 104 130 167 24 272 24 c 0
EndSplineSet
Validated: 33
EndChar

StartChar: gdotaccent
Encoding: 289 289 210
Width: 507
Flags: W
HStem: -12 36<204.672 351.615> 178 34<300.377 373.835 453.411 491.445> 422 32<207.383 359.691> 514 101<248.617 331.323>
VStem: 20 84<132.931 310.158> 239.5 101<523.117 605.823> 381 75<45.6252 162.706> 381 62<52.1408 156.612>
LayerCount: 2
Fore
SplineSet
239.5 564 m 0xfc
 239.5 593 261.5 615 289.5 615 c 0
 318.5 615 340.5 593 340.5 564 c 0
 340.5 536 318.5 514 289.5 514 c 0
 261.5 514 239.5 536 239.5 564 c 0xfc
272 24 m 0
 307 24 348 39 360 46 c 0
 377 57 381 78 381 102 c 0xfe
 381 123 385 149 379 157 c 0
 366 172 326 178 312 178 c 0
 305 178 300 194 298 204 c 0
 298 207 298 212 301 212 c 0
 341.5771 212 367 209 405 209 c 0
 435.4297 209 458 211 483 211 c 0
 487.21875 211 492 209 492 205 c 0
 492 194.1221 490 180 485 178 c 0
 465 172 448 163 446 145 c 0
 443 117 442.66211 101.7129 443 74 c 0xfd
 443.0556641 69.43555 444.67773 66.92969 447 63 c 0
 449.82031 58.22754 456 55 456 52 c 0xfe
 456 48 451.62988 42.03613 446 39 c 0
 416.3398 23.0039 399.3525 13.4287 367 4 c 0
 330.5596 -6.6201 297 -12 271 -12 c 0
 137.169 -12 20 88.169 20 222 c 0
 20 357 151.167 454 290 454 c 0
 341 454 373.2998 450 404 440 c 0
 416.7861 435.83496 426 432 429 420 c 0
 436.10059 391.5996 442 360 442 342 c 0
 442 335 437 328 431 328 c 0
 417.1514 328 404 339 401 347 c 0
 396 361 389 379 378 393 c 0
 369 403 341 423 275 422 c 0
 177.0469 420.51562 104 342 104 238 c 0
 104 130 167 24 272 24 c 0
EndSplineSet
Validated: 33
EndChar

StartChar: gcommaaccent
Encoding: 291 291 212
Width: 507
Flags: W
HStem: -276 21<245.576 273.712> -147 88<239.482 307.02> -12 36<204.672 351.615> 178 34<300.377 373.835 453.411 491.445> 422 32<207.383 359.691>
VStem: 20 84<132.931 310.158> 309.5 53.5<-223.477 -150.127> 381 75<45.6252 162.706> 381 62<52.1408 156.612>
LayerCount: 2
Fore
SplineSet
278.5 -147 m 0xfe
 256 -142 229 -124.5 229 -102.5 c 0
 229 -78.5 246 -59 275 -59 c 0
 323 -59 363 -100 363 -156 c 0
 363 -220 312 -265.5 262 -276 c 0
 238.4922 -280.93652 235.8799 -262.2227 256 -255 c 0
 295 -241 309.5 -203.5 309.5 -175.5 c 0
 309.5 -158.5 297.207 -151.1572 278.5 -147 c 0xfe
272 24 m 0
 307 24 348 39 360 46 c 0
 377 57 381 78 381 102 c 0xff
 381 123 385 149 379 157 c 0
 366 172 326 178 312 178 c 0
 305 178 300 194 298 204 c 0
 298 207 298 212 301 212 c 0
 341.5771 212 367 209 405 209 c 0
 435.4297 209 458 211 483 211 c 0
 487.21875 211 492 209 492 205 c 0
 492 194.1221 490 180 485 178 c 0
 465 172 448 163 446 145 c 0
 443 117 442.66211 101.7129 443 74 c 0xfe80
 443.0556641 69.43555 444.67773 66.92969 447 63 c 0
 449.82031 58.22754 456 55 456 52 c 0xff
 456 48 451.62988 42.03613 446 39 c 0
 416.3398 23.0039 399.3525 13.4287 367 4 c 0
 330.5596 -6.6201 297 -12 271 -12 c 0
 137.169 -12 20 88.169 20 222 c 0
 20 357 151.167 454 290 454 c 0
 341 454 373.2998 450 404 440 c 0
 416.7861 435.83496 426 432 429 420 c 0
 436.10059 391.5996 442 360 442 342 c 0
 442 335 437 328 431 328 c 0
 417.1514 328 404 339 401 347 c 0
 396 361 389 379 378 393 c 0
 369 403 341 423 275 422 c 0
 177.0469 420.51562 104 342 104 238 c 0
 104 130 167 24 272 24 c 0
EndSplineSet
Validated: 33
EndChar

StartChar: hcircumflex
Encoding: 293 293 214
Width: 605
Flags: W
HStem: -3 24<15.3203 59.3584 195.049 238.734 349.32 393.358 528.475 573.09> 216 37<164 423> 429 23<24.6897 54.4601 197.74 228.915 359.133 388.46 532.577 563.27>
VStem: 89 75<45.4878 216.466 252.794 409.42> 423 75<45.484 216.346 252.596 409.42>
LayerCount: 2
Fore
SplineSet
224.338 530 m 2
 218.50597 522.00195 208.338 512 196.338 512 c 0
 188.338 512 182.4357 521.41699 188.338 533 c 2
 188.338 533 244.838 646.761 266.338 684 c 0
 276.838 702.1865 287.338 713 294.338 713 c 0
 301.338 713 311.838 702.1865 322.338 684 c 0
 347.338 640.6992 400.338 533 400.338 533 c 2
 406.24034 521.417 400.338 512 392.338 512 c 0
 380.338 512 368.7189 522.5137 363.338 530 c 2
 294.338 626 l 1
 224.338 530 l 2
164 259 m 2
 164 254 169.45312 253.10742 174 253 c 0
 269.1338 250.75293 322.889 249.94434 418 253 c 0
 421.67773 253.118164 423 255 423 261 c 2
 423 377 l 2
 423 390 416.50391 396.7627 407 405 c 0
 392.2285 417.8018 380 422 363 429 c 0
 357 432 357 452 363 452 c 0
 406 452 421.5518 450 459 450 c 0
 498.0078 450 517 452 559 452 c 0
 567 452 565 432 559 429 c 0
 542 422 527 417 512 404 c 0
 505 398 498 389 498 377 c 2
 498 82 l 2
 498 67 500.51465 55.3027 512 45 c 0
 529.1553 29.6104 544 25 566 21 c 0
 577 18 577 -3 566 -3 c 0
 526 -3 500.7754 2 459 2 c 0
 418.7822 2 394 -3 356 -3 c 0
 348 -3 344 18 356 21 c 0
 377 25 392.959 29.48438 410 45 c 0
 421.3096 55.2969 423 67 423 82 c 2
 423 211 l 2
 423 216 421.49707 215.95117 419 216 c 0
 320.7383 217.91895 265.243 218.69727 167 216 c 0
 164.03125 215.9189453 164 214 164 209 c 2
 164 82 l 2
 164 67 166.5918 55.3867 178 45 c 0
 194.7783 29.7246 210 25 231 21 c 0
 243 18 243 -3 231 -3 c 0
 191 -3 168.8281 2 129 2 c 0
 87.2246 2 60 -3 22 -3 c 0
 14 -3 10 18 22 21 c 0
 43 25 58.959 29.48438 76 45 c 0
 87.3096 55.2969 89 67 89 82 c 2
 89 377 l 2
 89 390 82.50391 396.7627 73 405 c 0
 58.2285 417.8018 46 422 29 429 c 0
 22 432 23 452 29 452 c 0
 72 452 89.9922 450 129 450 c 0
 166.0586 450 183 452 224 452 c 0
 233 452 231 432 224 429 c 0
 207 422 192 417 178 404 c 1
 170 398 164 389 164 377 c 2
 164 259 l 2
EndSplineSet
Validated: 33
EndChar

StartChar: hbar
Encoding: 295 295 989
Width: 497
VWidth: 0
Flags: W
HStem: -3 27<17.9975 69.766 164.237 213.003 295.997 344.313 441.781 492.003> 362 52<226.693 320.965> 538 33<15.1377 83 153 304.321>
VStem: 83 70<32.0327 335.273 351.291 538 571 627.818> 357 70<32.9166 324.754>
LayerCount: 2
Fore
SplineSet
427 68 m 2
 427 41 450 30 470 24 c 0
 481 20 493 16 493 6 c 0
 493 -4 475 -3 470 -3 c 0
 431 -3 427 2 392 2 c 0
 357 2 357 -3 318 -3 c 0
 313 -3 295 -4 295 6 c 0
 295 16 307 20 318 24 c 0
 338 30 357 41 357 68 c 2
 357 272 l 2
 357 323 306 362 263 362 c 0
 238 362 199 355 180 340 c 0
 159 323 153 309 153 268 c 0
 153 189 153 127 153 65 c 0
 154 38 171 30 191 24 c 0
 202 20 214 16 214 6 c 0
 214 -4 196 -3 191 -3 c 0
 152 -3 153 2 118 2 c 0
 83 2 79 -3 40 -3 c 0
 35 -3 17 -4 17 6 c 0
 17 16 29 20 40 24 c 0
 60 30 83 37.9814 83 65 c 2
 83 538 l 5
 29 538 l 6
 20 538 15 547 15 553 c 0
 15 562 27 571 39 571 c 2
 83 571 l 1
 82 605 70 632 38 639 c 0
 28 641 28 662 37 664 c 0
 88 676 121 692 153 704 c 0
 158 706 160 702 162 698 c 1
 162 686 154 670 153 571 c 1
 293 571 l 2
 300 571 309 564 306 557 c 0
 299 544 290 538 275 538 c 6
 153 538 l 5
 153 388 l 2
 153 376 156 357 161 351 c 1
 192 374 249 414 312 414 c 0
 377 414 427 372 427 294 c 2
 427 68 l 2
EndSplineSet
Validated: 1
EndChar

StartChar: jcircumflex
Encoding: 309 309 224
Width: 212
Flags: W
HStem: -175 43<-8.48442 84.4661> 429 23<40.6897 71.1651 213.74 244.915>
VStem: 105 75<-73.123 409.459>
LayerCount: 2
Fore
SplineSet
37 530 m 2
 31.16797 522.00195 21 512 9 512 c 0
 1 512 -4.9023 521.41699 1 533 c 2
 1 533 57.5 646.761 79 684 c 0
 89.5 702.1865 100 713 107 713 c 0
 114 713 124.5 702.1865 135 684 c 0
 160 640.6992 213 533 213 533 c 2
 218.90234 521.417 213 512 205 512 c 0
 193 512 181.3809 522.5137 176 530 c 2
 107 626 l 1
 37 530 l 2
105 376 m 2
 105 390 98.68066 396.4492 89 405 c 0
 74.3506 417.9404 62 422 45 429 c 0
 38 432 39 452 45 452 c 0
 88 452 105.9922 450 145 450 c 0
 182.0586 450 199 452 240 452 c 0
 249 452 247 432 240 429 c 0
 223 422 208 417 194 404 c 1
 186 398 180 389 180 376 c 2
 180 136 l 2
 180 36 177.35938 8.304 175 -9 c 0
 169 -53 156.4824 -91.416 121 -128 c 0
 89.2676 -160.7178 43 -175 14 -175 c 0
 -13 -175 -32 -175 -56 -167 c 0
 -71 -162 -88.5479 -153.6523 -89 -136 c 0
 -89.5625 -114.0488 -78.1543 -97.7158 -58 -89 c 0
 -41.6982 -81.9502 -23 -93 -15 -104 c 0
 -8 -113 12 -132 30 -132 c 0
 56 -132 74.832 -126.23535 85 -112 c 0
 95 -98 101.5703 -80.124 103 -52 c 0
 106 7 105 65 105 86 c 2
 105 376 l 2
EndSplineSet
Validated: 33
EndChar

StartChar: lslash
Encoding: 322 322 999
Width: 444
Flags: W
HStem: -1 22<19.3836 56.1625> 2 30<175.271 350.335> 428 24<31.3807 69.0295 192.197 246.501>
VStem: 89 75<40.2419 405.613>
LayerCount: 2
Fore
SplineSet
40 152 m 2x30
 32.49805 147.91406 22 156 20 161 c 0
 15 169 17.99805 182.8174 33 191 c 2
 275 323 l 2
 281.64062 326.73145 293 324 293 317 c 0
 293 297 293.474609 290.377 275 280 c 2
 40 152 l 2x30
242 429 m 0
 214 421 190 421 177 406 c 0
 169 398 164 373 164 353 c 2
 164 86 l 2
 164 58 172 32 218 32 c 2
 314 32 l 2
 318 32 342 38 354 50 c 0
 375 71 383 89 395 114 c 0
 398 119 412 122 423 121 c 0
 428 121 433 117 432 112 c 0
 422 76 413 39 410 10 c 0
 410 4 402 -2 395 -2 c 0
 291 -2 199 2 129 2 c 0x70
 94 2 23 -1 23 -1 c 2
 18 -1 17 20 23 21 c 0xb0
 46 27 55 28 69 42 c 0
 82 55 89 66 89 84 c 2
 89 354 l 2
 89 374 87 398 80 406 c 0
 66 421 63 420 36 428 c 0
 30 429 27 452 36 452 c 0
 65 452 82 450 112 450 c 0
 163 450 224 454 242 453 c 0
 252 453 248 430 242 429 c 0
EndSplineSet
Validated: 37
EndChar

StartChar: ncommaaccent
Encoding: 326 326 238
Width: 631
Flags: W
HStem: -262 21<303.576 331.712> -133 88<297.482 365.02> -14 21G<510.919 529.175> -3 24<62.3025 102.76 192.857 225.931> 425 24<52.9092 103.383 431.989 469.611 576.188 609.063>
VStem: 129 46<86.0745 336.475> 367.5 53.5<-209.477 -136.127> 507 40<109.998 403.448>
LayerCount: 2
Fore
SplineSet
336.5 -133 m 0xcf
 314 -128 287 -110.5 287 -88.5 c 0
 287 -64.5 304 -45 333 -45 c 0
 381 -45 421 -86 421 -142 c 0
 421 -206 370 -251.5 320 -262 c 0
 296.4922 -266.93652 293.8799 -248.2227 314 -241 c 0
 353 -227 367.5 -189.5 367.5 -161.5 c 0
 367.5 -144.5 355.207 -137.1572 336.5 -133 c 0xcf
67 -3 m 0xdf
 57.63965 -3 61 20 67 21 c 0xdf
 85 24 95.6465 24.61426 107 37 c 0
 119.251 50.3643 121 64 122 81 c 0
 128.41406 190.046 129 248 129 361 c 0
 129 381 131 387 123 397 c 0
 102 422 70 424 59 425 c 0
 50 425 50 449 59 449 c 0
 113 447 152 449 203 449 c 0
 211 449 213.4854 440.53711 219 434 c 0
 325.064 308.28 379.723 232.937 489 110 c 0
 493.66406 104.75293 506 83 507 110 c 0
 511 214 508 266 504 378 c 0
 503 409 448 420 435 425 c 0
 431 426 430 447 435 447 c 0
 471 447 488.6445 443 523 443 c 0
 555.4072 443 576 447 606 447 c 0
 610 447 613 425 606 425 c 1
 586 422 577 414 571 409 c 0
 565 405 552.7793 394.8525 552 382 c 0
 543.29297 238.341 547 159 547 13 c 0
 547 -2 536.3506 -14 522 -14 c 0xef
 499.8389 -14 480 4 472 13 c 2
 204 329 l 1
 184 351 180 341 179 332 c 0
 177 271 173 135 175 73 c 0
 176 60 177.01074 50.1611 186 40 c 0
 196.291 28.3672 200 25 221 21 c 0
 228 20 230 -3 218 -3 c 0
 184 -3 171.6807 1 142 1 c 0
 112.708 1 96 -3 67 -3 c 0xdf
EndSplineSet
Validated: 33
EndChar

StartChar: racute
Encoding: 341 341 248
Width: 547
Flags: W
HStem: -14 35<429.98 499.568> -4 25<14.438 48.7443 199.518 228.809> 424 29<25.5276 65.644 166.038 261.371>
VStem: 82 75<44.9388 203.042 233.012 401.614> 294 84<269.317 397.487>
LayerCount: 2
Fore
SplineSet
173.275 535 m 0x38
 167.8834 527.52148 155.275 513 146.275 513 c 0
 137.0543 513 133.275 517 133.275 526 c 0
 133.275 541 205.275 667 226.275 701 c 0
 237.36 718.9473 254.7711 728.2646 277.275 728 c 0
 294.4518 727.797852 311.275 714 311.275 700 c 0
 311.275 681 253.275 646 173.275 535 c 0x38
157 258 m 0
 158 231 169 233 190 233 c 0
 231 233 245 241 263 253 c 0
 286 267 294 293 294 334 c 0
 294 373 282 424 204 424 c 0
 166 424 161 407 160 386 c 0
 158 336 156 313 157 258 c 0
157 189 m 0
 158 149 159 118 160 81 c 0
 161 53 181 36 225 25 c 0
 231 23 232 -4 225 -4 c 0
 211 -4 166.5127 2 129 2 c 0
 85.2578 2 36 -4 17 -4 c 0
 11 -4 11 19 17 21 c 0
 37 26 47.9561 30.17188 62 44 c 0
 74.6777 56.4824 82 68 82 85 c 2
 82 352 l 2
 82 371 80 394 73 402 c 0
 59 417 57 418 30 425 c 0
 24 427 19.2422 450 29 450 c 0
 58 450 84.4902 447 120 447 c 0
 146 447 164 453 204 453 c 0
 305 453 378 410 378 335 c 0
 378 304 354 261 343 251 c 0
 329 237 312 226 303 222 c 0
 300 221 300 220 303 216 c 0
 346 151 364 102 427 41 c 0
 455 13 469 22 502 21 c 0x78
 509 21 506 5 500 1 c 0
 491 -5 468 -14 451 -14 c 0xb8
 411 -14 365 -6 340 24 c 0
 307 65 299 84 252 161 c 0
 244 173 236.1123 181.0273 222 188 c 0
 202.0674 197.84961 180 202 167 203 c 0
 160 204 157 198 157 189 c 0
EndSplineSet
Validated: 33
EndChar

StartChar: rcaron
Encoding: 345 345 252
Width: 547
Flags: W
HStem: -14 35<429.98 499.568> -4 25<14.438 48.7443 199.518 228.809> 424 29<25.5276 65.644 166.038 261.371>
VStem: 82 75<44.9388 203.042 233.012 401.614> 294 84<269.317 397.487>
LayerCount: 2
Fore
SplineSet
132.275 692 m 2x38
 202.275 596 l 1
 271.275 692 l 2
 276.65586 699.48633 288.275 710 300.275 710 c 0
 308.275 710 314.1773 700.58301 308.275 689 c 2
 308.275 689 255.275 581.301 230.275 538 c 0
 219.775 519.8135 209.275 509 202.275 509 c 0
 195.275 509 184.775 519.8135 174.275 538 c 0
 152.775 575.2393 96.275 689 96.275 689 c 2
 90.37266 700.583 96.275 710 104.275 710 c 0
 116.275 710 126.443 699.998 132.275 692 c 2x38
132.275 696 m 2
 202.275 600 l 1
 271.275 696 l 2
 276.65586 703.48633 288.275 714 300.275 714 c 0
 308.275 714 314.1773 704.58301 308.275 693 c 2
 308.275 693 255.275 585.301 230.275 542 c 0
 219.775 523.8135 209.275 513 202.275 513 c 0
 195.275 513 184.775 523.8135 174.275 542 c 0
 152.775 579.2393 96.275 693 96.275 693 c 2
 90.37266 704.583 96.275 714 104.275 714 c 0
 116.275 714 126.443 703.998 132.275 696 c 2
157 258 m 0
 158 231 169 233 190 233 c 0
 231 233 245 241 263 253 c 0
 286 267 294 293 294 334 c 0
 294 373 282 424 204 424 c 0
 166 424 161 407 160 386 c 0
 158 336 156 313 157 258 c 0
157 189 m 0
 158 149 159 118 160 81 c 0
 161 53 181 36 225 25 c 0
 231 23 232 -4 225 -4 c 0
 211 -4 166.5127 2 129 2 c 0
 85.2578 2 36 -4 17 -4 c 0
 11 -4 11 19 17 21 c 0
 37 26 47.9561 30.17188 62 44 c 0
 74.6777 56.4824 82 68 82 85 c 2
 82 352 l 2
 82 371 80 394 73 402 c 0
 59 417 57 418 30 425 c 0
 24 427 19.2422 450 29 450 c 0
 58 450 84.4902 447 120 447 c 0
 146 447 164 453 204 453 c 0
 305 453 378 410 378 335 c 0
 378 304 354 261 343 251 c 0
 329 237 312 226 303 222 c 0
 300 221 300 220 303 216 c 0
 346 151 364 102 427 41 c 0
 455 13 469 22 502 21 c 0x78
 509 21 506 5 500 1 c 0
 491 -5 468 -14 451 -14 c 0xb8
 411 -14 365 -6 340 24 c 0
 307 65 299 84 252 161 c 0
 244 173 236.1123 181.0273 222 188 c 0
 202.0674 197.84961 180 202 167 203 c 0
 160 204 157 198 157 189 c 0
EndSplineSet
Validated: 37
EndChar

StartChar: scedilla
Encoding: 351 351 258
Width: 373
Flags: HW
HStem: -277.6 49<114.47 188.045> -11 35<115.496 225.454> -11 15.4<197.5 228.5> 423 35<143.458 252.654>
VStem: 53 74<318.853 396.396> 207.5 50<-209.312 -126.1> 247 84<53.416 148.023> 288 32<337.527 385.485>
LayerCount: 2
Fore
SplineSet
124.5 -132.6 m 0xbc
 117.93457 -135.22598 97.6318 -122.70352 109.5 -107.6 c 2
 197.5 4.4 l 1
 228.5 4.4 l 1
 189.5 -46.6 l 2
 182.75488 -55.42129 191.56641 -64.4418 196.5 -66.6 c 0
 228.5 -80.6 257.5 -109.6 257.5 -142.6 c 0
 257.5 -222.6 168.5 -277.6 132.5 -277.6 c 0
 118.5 -277.6 113.6133 -274.73086 108.5 -265.6 c 0
 101.21875 -252.598 101.10352 -242.1098 104.5 -227.6 c 0
 106.05469 -220.95742 112.93359 -215.974 119.5 -218.6 c 0
 134.5 -224.6 146.5 -228.6 168.5 -228.6 c 0
 194.5 -228.6 207.5 -209.6 207.5 -183.6 c 0
 207.5 -147.6 175.5 -132.6 140.5 -130.6 c 0
 133.5 -130.6 129.5 -130.6 124.5 -132.6 c 0xbc
169 24 m 0xda
 231 24 247 57 247 99 c 0xda
 247 144 207 165 148 203 c 0
 96 236 53 285 53 340 c 0
 53 382 102 458 205 458 c 0
 253 458 281 443 296 441 c 0
 303.67383 439.97656 308 432 309 426 c 0
 314 402 320 376 320 352 c 0
 320 346 316 335 312 335 c 0
 308 335 290 342 288 352 c 0xd9
 270 415 221 423 196 423 c 0
 149 423 127 402 127 364 c 0
 127 320 184 289 221 265 c 0
 260 240 331 190 331 120 c 0
 331 65 285 -11 172 -11 c 0
 118 -11 89 2 64 7 c 0
 53 9 55 12 53 15 c 0
 45 31 31 85 30 110 c 0
 30 116 42 121 50 121 c 0
 58 121 90 24 169 24 c 0xda
EndSplineSet
EndChar

StartChar: utilde
Encoding: 361 361 266
Width: 563
Flags: W
HStem: -13 35<238.389 374.945> 425 25<35.0211 68.4721 167.691 200.01 380.363 415.874 499.32 542.199> 497 66<252.585 387.262> 510 67<224.463 359.915>
VStem: 80 75<101.856 419.064> 431 44<89.461 410.762>
LayerCount: 2
Fore
SplineSet
173 496 m 0xdc
 198.4043 532.2803 240 577 260 577 c 0xdc
 280 577 342 563 367 563 c 0
 382 563 394.0928 564.18652 421 599 c 0
 426.25879 605.80469 442.8486 586.4961 439 581 c 0
 421.5576 556.0898 375 497 355 497 c 0xec
 335 497 268 510 243 510 c 0
 228 510 208.5059 494.5059 188 474 c 0
 183.0498 469.0498 167.2637 487.8076 173 496 c 0xdc
80 204 m 2
 80 372 l 2
 80 415 64 418 41 425 c 0
 33 427 29.2188 450 39 450 c 0
 71 450 92.0605 448 126 448 c 0
 152.9209 448 156 450 195 450 c 0
 203 450 203 428 195 426 c 0
 166 422 156 404 155 365 c 0
 153 305 155 220 155 185 c 0
 155 98.0791 215 22 307 22 c 0
 391 22 431 70 431 193 c 2
 431 350 l 1
 432 411 419 417 386 425 c 0
 377 428 376.85254 451 387 451 c 2
 459 451 l 2
 490 451 508 452 540 452 c 0
 548.58008 452 545 431 540 430 c 0
 509.4326 423.88672 484 412 482 375 c 0
 480 353 475 279 475 217 c 0
 475 102.855 439 -13 294 -13 c 0
 155 -13 80 85.1396 80 204 c 2
EndSplineSet
Validated: 33
EndChar

StartChar: uring
Encoding: 367 367 272
Width: 563
Flags: W
HStem: -13 35<238.389 374.945> 425 25<35.0211 68.4721 167.691 200.01 380.363 415.874 499.32 542.199> 480 33<249.978 324.022> 615 33<249.978 324.022>
VStem: 80 75<101.856 419.064> 203 33<527.234 600.438> 338 33<527.234 600.438> 431 44<89.461 410.762>
LayerCount: 2
Fore
SplineSet
287 648 m 0
 331 648 371 611 371 567 c 0
 371 523 331 480 287 480 c 0
 243 480 203 523 203 567 c 0
 203 611 243 648 287 648 c 0
236 564 m 0
 236 536 259 513 287 513 c 0
 315 513 338 536 338 564 c 0
 338 592 315 615 287 615 c 0
 259 615 236 592 236 564 c 0
80 204 m 2
 80 372 l 2
 80 415 64 418 41 425 c 0
 33 427 29.2188 450 39 450 c 0
 71 450 92.0605 448 126 448 c 0
 152.9209 448 156 450 195 450 c 0
 203 450 203 428 195 426 c 0
 166 422 156 404 155 365 c 0
 153 305 155 220 155 185 c 0
 155 98.0791 215 22 307 22 c 0
 391 22 431 70 431 193 c 2
 431 350 l 1
 432 411 419 417 386 425 c 0
 377 428 376.85254 451 387 451 c 2
 459 451 l 2
 490 451 508 452 540 452 c 0
 548.58008 452 545 431 540 430 c 0
 509.4326 423.88672 484 412 482 375 c 0
 480 353 475 279 475 217 c 0
 475 102.855 439 -13 294 -13 c 0
 155 -13 80 85.1396 80 204 c 2
EndSplineSet
Validated: 33
EndChar

StartChar: uhungarumlaut
Encoding: 369 369 274
Width: 563
Flags: W
HStem: -13 35<238.389 374.945> 425 25<35.0211 68.4721 167.691 200.01 380.363 415.874 499.32 542.199>
VStem: 80 75<101.856 419.064> 431 44<89.461 410.762>
LayerCount: 2
Fore
SplineSet
234 485 m 0
 230 477 220 460 212 458 c 1
 203 457 198 460 197 469 c 0
 194 484 243 604 258 641 c 0
 266 661 281 673 303 677 c 0
 320 680 339 669 342 655 c 0
 345 636 254 523 234 485 c 0
369 485 m 0
 364 477 355 460 347 458 c 1
 338 457 333 460 332 469 c 0
 329 484 378 604 393 641 c 0
 401 661 416 673 438 677 c 0
 455 680 474 669 477 655 c 0
 480 636 394 525 369 485 c 0
80 204 m 2
 80 372 l 2
 80 415 64 418 41 425 c 0
 33 427 29.2188 450 39 450 c 0
 71 450 92.0605 448 126 448 c 0
 152.9209 448 156 450 195 450 c 0
 203 450 203 428 195 426 c 0
 166 422 156 404 155 365 c 0
 153 305 155 220 155 185 c 0
 155 98.0791 215 22 307 22 c 0
 391 22 431 70 431 193 c 2
 431 350 l 1
 432 411 419 417 386 425 c 0
 377 428 376.85254 451 387 451 c 2
 459 451 l 2
 490 451 508 452 540 452 c 0
 548.58008 452 545 431 540 430 c 0
 509.4326 423.88672 484 412 482 375 c 0
 480 353 475 279 475 217 c 0
 475 102.855 439 -13 294 -13 c 0
 155 -13 80 85.1396 80 204 c 2
EndSplineSet
Validated: 33
EndChar

StartChar: uni01D9
Encoding: 473 473 304
Width: 563
VWidth: 0
Flags: W
HStem: -13 35<238.389 374.945> 425 25<35.0211 68.4721 167.691 200.01 380.363 415.874 499.32 542.199> 513 100<152.202 230.798 329.202 407.798>
VStem: 80 75<101.856 419.064> 141.5 100<523.702 602.298> 318.5 100<523.702 602.298> 431 44<89.4612 410.762>
LayerCount: 2
Fore
SplineSet
397.094726562 867 m 4xe6
 423.094726562 882 444.094726562 890 493.094726562 916 c 4
 505.094726562 923 515.094726562 931 528.094726562 931 c 4
 543.094726562 931 548.094726562 918 536.094726562 908 c 4
 468.094726562 851 526.094726562 898 428.094726562 820 c 4
 408.094726562 804 402.094726562 798 387.094726562 798 c 4
 372.094726562 798 366.094726562 804 346.094726562 820 c 4
 248.094726562 898 306.094726562 851 238.094726562 908 c 4
 226.094726562 918 231.094726562 930 246.094726562 930 c 4
 259.094726562 930 286.094726562 919 298.094726562 912 c 4
 347.094726562 886 351.094726562 882 377.094726562 867 c 4
 388.094726562 860 386.094726562 860 397.094726562 867 c 4xe6
EndSplineSet
Refer: 154 220 N 1 0 0 1 0 0 3
Validated: 1
EndChar

StartChar: Gcaron
Encoding: 486 486 310
Width: 507
VWidth: 0
Flags: W
HStem: -12 36<204.672 351.615> 178 34<300.377 373.835 453.411 491.445> 422 32<207.383 359.691> 700 21G<392.5 407.5>
VStem: 20 84<132.931 310.158> 381 62<52.1408 156.612> 381 75<45.6252 162.706>
LayerCount: 2
Fore
SplineSet
410 769 m 4xf8
 436 784 457 792 506 818 c 4
 518 825 528 833 541 833 c 4
 556 833 561 820 549 810 c 4
 481 753 539 800 441 722 c 4
 421 706 415 700 400 700 c 4
 385 700 379 706 359 722 c 4
 261 800 319 753 251 810 c 4
 239 820 244 832 259 832 c 4
 272 832 299 821 311 814 c 4
 360 788 364 784 390 769 c 4
 401 762 399 762 410 769 c 4xf8
EndSplineSet
Refer: 40 71 N 1 0 0 1 0 0 3
Validated: 1
EndChar

StartChar: uni01EA
Encoding: 490 490 314
Width: 773
VWidth: 0
Flags: W
HStem: -287 71<404.464 481.623> -14 39<314.694 459.029> 625 39<292.149 474.251>
VStem: 50 97<219.261 447.462> 303 85<-199.606 -97.6761> 626 97<207.202 448.756>
LayerCount: 2
Fore
SplineSet
50 320 m 0
 50 500 168 659 387 664 c 0
 564 668 723 535 723 335 c 0
 723 184.657 641.378 41.9877 486.874 -0.943589 c 1
 419.647 -57.2563 388 -80.4152 388 -155 c 0
 388 -190 418.95 -216 454 -216 c 0
 489 -216 527 -181 536 -176 c 0
 540.574 -173.459 548 -174 548 -182 c 0
 548 -195.329 541 -205 536 -214 c 0
 521 -240 467 -287 417 -287 c 0
 354.399 -287 303 -236.601 303 -174 c 0
 303 -105.618 338.801 -67.9231 425.392 -12.2016 c 1
 412.966 -13.3891 400.167 -14 387 -14 c 0
 210 -14 50 130 50 320 c 0
380 625 m 0
 232 625 147 490 147 350 c 0
 147 179 252 25 400 25 c 0
 550 25 626 134 626 305 c 0
 626 495 540 625 380 625 c 0
EndSplineSet
Validated: 33
EndChar

StartChar: uni022C
Encoding: 556 556 337
Width: 605
VWidth: 0
Flags: W
HStem: -15 37<242.335 386.997> 424 32<229.322 364.877> 515 66<261.585 396.262> 528 67<233.463 368.915> 870.527 54<227.559 517.578>
VStem: 66 85<119.755 310.96> 182 266 468 84<121.475 314.94>
LayerCount: 2
Fore
SplineSet
247.890625 924.52734375 m 30xcf
 510.890625 924.52734375 l 30
 518.341796875 924.52734375 526.247070312 917.595703125 523.890625 910.52734375 c 28
 517.649414062 891.803710938 512.626953125 870.52734375 492.890625 870.52734375 c 30
 237.890625 870.52734375 l 30
 230.69921875 870.52734375 223.890625 876.52734375 223.890625 882.52734375 c 4
 223.890625 891.52734375 229.025390625 924.52734375 247.890625 924.52734375 c 30xcf
EndSplineSet
Refer: 149 213 N 1 0 0 1 0 0 3
Validated: 1
EndChar

StartChar: dotlessj
Encoding: 567 567 345
Width: 212
VWidth: 0
Flags: W
HStem: -287 27<-34.4197 3.46219>
VStem: 71 73<-125.108 338.26>
LayerCount: 2
Fore
SplineSet
71 279 m 4
 71 315.01 58 345 25 352 c 8
 15.4551 354.024 14.502 374.765 24 377 c 16
 75 389 106 412 141 433 c 0
 145 435 152 434 152 429 c 0
 150 406 144 361.01 144 275 c 0
 144 224.99 144 163 144 91 c 0
 144 28.99 143.072 -72.1261 114 -152 c 0
 89.3711 -219.667 25.1259 -278.684 -14 -287 c 0
 -21.8545 -288.67 -35 -286 -35 -277 c 0
 -35 -269 -26.2892 -260.613 -24 -260 c 0
 -0.141633 -253.607 23.1269 -236.747 42 -197 c 0
 71.1676 -135.573 71 3 71 71 c 0
 71 160 71 228.99 71 279 c 4
EndSplineSet
Validated: 33
EndChar

StartChar: breve
Encoding: 728 728 346
Width: 0
VWidth: 0
Flags: W
HStem: 461 55<-220.382 -113.618>
VStem: -274 32<547.396 600.922> -92 32<548.031 600.922>
LayerCount: 2
Fore
SplineSet
-242 580 m 0
 -229 558 -227 516 -167 516 c 0
 -107 516 -105 558 -92 580 c 0
 -87 589 -85 601 -75 601 c 0
 -65 601 -60 590 -60 577 c 0
 -60 513 -97 461 -167 461 c 0
 -237 461 -274 502 -274 577 c 0
 -274 590 -269 601 -259 601 c 0
 -249 601 -247 589 -242 580 c 0
EndSplineSet
Validated: 1
EndChar

StartChar: dotaccent
Encoding: 729 729 347
Width: 0
VWidth: 0
Flags: W
HStem: 513 101<-166.883 -84.1767>
VStem: -176 101<522.117 604.823>
LayerCount: 2
Fore
SplineSet
-176 563 m 0
 -176 592 -154 614 -126 614 c 0
 -97 614 -75 592 -75 563 c 0
 -75 535 -97 513 -126 513 c 0
 -154 513 -176 535 -176 563 c 0
EndSplineSet
Validated: 1
EndChar

StartChar: uni02E3
Encoding: 739 739 621
Width: 266
VWidth: 0
Flags: W
HStem: 273 20<133.092 161.886 230.447 262.908> 499 25<14.4032 48.4166 203.916 257.79>
VStem: 2 261
LayerCount: 2
Fore
SplineSet
52 482 m 2
 48.8659 486.52 42 495 29 499 c 0
 22 501 14 507 14 514 c 0
 14 520 26 524 29 524 c 0
 54 524 48 524 80 524 c 0
 96 524 98 525 113 525 c 0
 116 525 128 519 128 513 c 0
 128 506 121.759 500.704 115 498 c 0
 110 496 113.019 484.275 116 479 c 2
 129 456 l 2
 138.033 440.019 140.427 442.421 146 450 c 2
 171 484 l 2
 172.615 486.196 175 498 171 499 c 0
 163.937 500.766 156 507 156 513 c 0
 156 519 168 524 171 524 c 0
 177 524 194 524 204 524 c 0
 227 524 234 524 243 524 c 0
 246 524 258 519 258 513 c 0
 258 507 250 502 243 500 c 0
 230 496 209.049 495.411 197 480 c 18
 154 425 l 2
 153 423 156 413 158 411 c 2
 221 314 l 2
 226.458 305.596 235 297 248 293 c 0
 255 291 263 289 263 282 c 0
 263 276 251 273 248 273 c 0
 223 273 227 273 195 273 c 0
 179 273 163 273 148 273 c 0
 145 273 133 276 133 282 c 0
 133 288 141 293 148 295 c 0
 161 299 168.029 304.382 160 317 c 2
 125 372 l 2
 123 375 118 367 117 365 c 2
 78 309 l 2
 75.1426 304.897 74 299 87 295 c 0
 94 293 102 288 102 282 c 0
 102 276 90 273 87 273 c 0
 80 273 70 273 60 273 c 0
 37 273 28 273 18 273 c 0
 6 273 2 275 2 281 c 0
 2 288 10.793 291.971 18 293 c 0
 32 295 50.4971 315.956 56 323 c 2
 104 387 l 2
 109.161 393.882 107 402 104 407 c 2
 52 482 l 2
EndSplineSet
Validated: 1
EndChar

StartChar: acutecomb
Encoding: 769 769 622
Width: 0
VWidth: 0
Flags: W
HStem: 457 215
VStem: -212 178
LayerCount: 2
Fore
SplineSet
-172 479 m 4
 -177.391 471.521 -190 457 -199 457 c 4
 -208.22 457 -212 461 -212 470 c 4
 -212 485 -140 611 -119 645 c 4
 -107.915 662.947 -90.5039 672.265 -68 672 c 28
 -50.8232 671.798 -34 658 -34 644 c 4
 -34 625 -92 590 -172 479 c 4
EndSplineSet
Validated: 33
EndChar

StartChar: uni0302
Encoding: 770 770 91
Width: 336
VWidth: 0
Flags: W
HStem: 449 224
VStem: 29 280
LayerCount: 2
Fore
SplineSet
172 577 m 0
 168 582 168 582 163 577 c 0
 127 536 92 497 65 467 c 0
 58 460 49 452 37 449 c 0
 28 447 22 459 29 470 c 0
 67 534 69 536 124 625 c 0
 135 643 154 673 169 673 c 0
 184 673 203 643 214 625 c 0
 269 537 268 540 309 470 c 0
 316 459 310 447 301 449 c 0
 289 452 279 460 273 467 c 0
 237 506 209 536 172 577 c 0
EndSplineSet
Validated: 1
EndChar

StartChar: uni0306
Encoding: 774 774 121
Width: 336
VWidth: 0
Flags: W
HStem: 461 55<115.618 222.382>
VStem: 62 32<547.396 600.922> 244 32<548.031 600.922>
LayerCount: 2
Fore
SplineSet
94 580 m 4
 107 558 109 516 169 516 c 4
 229 516 231 558 244 580 c 4
 249 589 251 601 261 601 c 4
 271 601 276 590 276 577 c 4
 276 513 239 461 169 461 c 4
 99 461 62 502 62 577 c 4
 62 590 67 601 77 601 c 4
 87 601 89 589 94 580 c 4
EndSplineSet
Validated: 1
EndChar

StartChar: uni0315
Encoding: 789 789 982
Width: 216
VWidth: 0
Flags: W
HStem: 426 21<37.2522 77.0775> 568 78<31.5667 110.873>
VStem: 26 146<574.803 608.08>
LayerCount: 2
Fore
SplineSet
73 568 m 0
 44 569 26 588 26 610 c 0
 26 626 44 646 73 646 c 0
 121 646 172 605 172 549 c 0
 172 485 107 428 56 426 c 0
 32 425 29 443 50 447 c 0
 93 456 117 488 120 518 c 0
 122 540 105 566 73 568 c 0
EndSplineSet
Validated: 33
EndChar

StartChar: afii10023
Encoding: 1025 1025 961
Width: 421
VWidth: 0
Flags: W
HStem: -3 24<11.2984 48.228> 3 36<164.786 334.559> 410 41<161.645 328.992> 429 21<22.3123 57.3167> 699 110<163.566 249.873 353.566 439.873>
VStem: 79 75<45.5227 217.677 253 406.614> 151.72 110<710.847 797.153> 341.72 110<710.847 797.153> 347 19<347.096 375.298>
LayerCount: 2
Fore
SplineSet
396.719726562 809 m 24x09
 426.719726562 809 451.719726562 784 451.719726562 754 c 24
 451.719726562 724 426.719726562 699 396.719726562 699 c 24
 366.719726562 699 341.719726562 724 341.719726562 754 c 24
 341.719726562 784 366.719726562 809 396.719726562 809 c 24x09
206.719726562 809 m 24
 236.719726562 809 261.719726562 784 261.719726562 754 c 24
 261.719726562 724 236.719726562 699 206.719726562 699 c 24
 176.719726562 699 151.719726562 724 151.719726562 754 c 24x0a
 151.719726562 784 176.719726562 809 206.719726562 809 c 24
EndSplineSet
Refer: 659 1045 N 1 0 0 1 0 0 3
Validated: 1
EndChar

StartChar: afii10053
Encoding: 1028 1028 1122
Width: 642
VWidth: 0
Flags: W
HStem: 314 49<200.125 460.406> 336 27<143.841 267.157> 632 32<290.448 457.072>
VStem: 45 98<362.55 455.862> 558 28<471.876 533.075> 563 33<108.529 166.492>
LayerCount: 2
Fore
SplineSet
372 632 m 0x78
 230 632 150 520 143 372 c 0
 142 364 145.557 363.181 150 363 c 24x78
 233.391 359.604 280.577 360.495 364 363 c 24
 410.553 364.398 458 366 483 373 c 0
 489 375 494 368 494 362 c 0
 494 359 437 314 415 314 c 0xb8
 291 314 211 333 151 336 c 0
 146 336 142.523 334.048 143 326 c 0
 150 208 220 22 351 15 c 0
 431.885 10.6777 486 44 521 76 c 0
 542 95 555 121 563 143 c 0
 567 155 578 169 584 168 c 0
 592 167 596 154 596 143 c 0x74
 596 117 587 74 580 51 c 0
 572 26 549 14 524 5 c 0
 487 -9 412.8 -15 341 -15 c 8
 161.335 -15 45 158.33 45 338 c 8
 45 513.984 181.016 664 357 664 c 16
 406.01 664 439 660 482 651 c 0
 501 647 541 634 558 633 c 0
 566 633 568 617 571 603 c 0
 577 574 585 526 586 494 c 0
 586 485 585 470 575 471 c 0
 564 472 561 489 558 502 c 0
 550 534 519 570 507 581 c 0
 497 591 464 632 372 632 c 0x78
EndSplineSet
Validated: 33
EndChar

StartChar: afii10056
Encoding: 1031 1031 655
Width: 320
VWidth: 0
Flags: W
HStem: -3 24<54.3203 98.3583 234.049 277.734> 429 23<63.6897 93.4601 236.74 267.915> 724 110<43.2998 129.606 233.3 319.606>
VStem: 31.4531 110<735.847 822.153> 128 75<45.4878 409.42> 221.453 110<735.847 822.153>
LayerCount: 2
Fore
SplineSet
276.453125 834 m 24xe4
 306.453125 834 331.453125 809 331.453125 779 c 24
 331.453125 749 306.453125 724 276.453125 724 c 24
 246.453125 724 221.453125 749 221.453125 779 c 24
 221.453125 809 246.453125 834 276.453125 834 c 24xe4
86.453125 834 m 24
 116.453125 834 141.453125 809 141.453125 779 c 24
 141.453125 749 116.453125 724 86.453125 724 c 24
 56.453125 724 31.453125 749 31.453125 779 c 24xf4
 31.453125 809 56.453125 834 86.453125 834 c 24
EndSplineSet
Refer: 654 1030 N 1 0 0 1 0 0 3
Validated: 1
EndChar

StartChar: uni040D
Encoding: 1037 1037 1110
Width: 807
VWidth: 0
HStem: -3 25<30.426 81.0001 273.196 324.967 484.426 535.64 725.336 776.967> 630 22<43.7112 74.3048 279.794 311.36 497.711 527.651 730.403 763.36> 754 72<258.959 367.68>
VStem: 134.955 84.631<57.7304 119.675 179.555 594.571> 589.87 82.085<54.7052 492.777 552.953 593.936>
LayerCount: 2
Fore
SplineSet
471 705 m 0
 418 720 344 739 283 754 c 0
 269 757 251 764 251 780 c 24
 252 802 265 816 286 826 c 24
 304 835 320 831 338 821 c 0
 401 789 433 769 502 725 c 0
 513 718 513 705 505 703 c 0
 493 700 480 703 471 705 c 0
EndSplineSet
Refer: 1107 1048 N 1 0 0 1 0 0 3
Validated: 1
EndChar

StartChar: afii10145
Encoding: 1039 1039 1111
Width: 812
VWidth: 0
Flags: W
HStem: -3 22<28.595 73.5804 741.527 782.244> 0 41<217.912 353.406 456.778 589.163> 627 25<30.9805 75.7959 253.579 297.529 512.98 557.612 735.579 779.529>
VStem: 120 86<51.2162 591.995> 606 85<56.993 590.5>
LayerCount: 2
Fore
SplineSet
335 0 m 2x78
 335 0 218.76 0 165 0 c 8x78
 114.286 0 93 -3 35 -3 c 0
 23 -3 26 15 35 19 c 0xb8
 59 29 79 26 100 44 c 0
 111 53 120 71.7197 120 92 c 0
 120 262 120 366 120 540 c 0
 120 561.592 115.515 576.016 101 592 c 24
 82.7891 612.056 72 621 41 627 c 0
 25 630 25 652 41 652 c 0
 98 652 116.601 647 165 647 c 24
 213.01 647 234 652 288 652 c 0
 300 652 305 630 288 627 c 0
 258 621 246.211 612.055 228 592 c 24
 213.485 576.016 210 562 209 540 c 0
 207 464 206 158 206 99 c 0
 206 67 227 41 258 41 c 0
 390 41 425.98 41 548 41 c 0x78
 583 41 606 77 606 106 c 0
 606 164 606 465.94 606 540 c 0
 606 561.59 598.307 575.955 583 592 c 24
 564.3 611.601 554 621 523 627 c 0
 507 630 507 652 523 652 c 0
 580 652 598.601 647 647 647 c 24
 695.01 647 716 652 770 652 c 0
 782 652 787 630 770 627 c 0
 740 621 728.211 612.055 710 592 c 24
 695.485 576.016 691 562.02 691 540 c 0
 691 370 691 270.03 691 92 c 0
 691 73.9697 699.987 57.752 716 44 c 24
 735.231 27.4834 752 29 776 19 c 0
 786 15 785 -3 776 -3 c 0xb8
 716 -3 697.32 0 647 0 c 0
 475 0 l 2
 435 4.89843e-15 441 -214 406 -214 c 0
 371 -214 375 0 335 0 c 2x78
EndSplineSet
Validated: 1
EndChar

StartChar: afii10021
Encoding: 1044 1044 1117
Width: 700
VWidth: 0
Flags: W
HStem: 0 40<168.648 512.631>
VStem: 47 47<-205.596 -27.4908> 613 47<-204.596 -26.4908>
LayerCount: 2
Fore
SplineSet
125 110 m 2
 324 570 l 2
 327.911 579.04 331.106 588.012 334 600 c 24
 336.588 610.723 336 627 338 628 c 0
 350 632 357 633 368 638 c 0
 383 645 393 670 398 670 c 0
 403 670 404.942 664.983 408 656 c 2
 587 130 l 2
 600.211 95.0791 606 81 614 61 c 0
 621.954 41.1143 640 41 668 40 c 0
 678.764 39.6152 679 30.2275 679 22 c 16
 679 -3 664 -80 660 -174 c 0
 659.301 -190.435 650.45 -205 634 -205 c 8
 615.337 -205 612.546 -182.275 613 -162 c 0
 616 -28 591.98 0 523 0 c 8
 390.789 0 316.211 -1 184 -1 c 16
 115.02 -1 91 -29 94 -163 c 0
 94.4541 -183.275 91.6631 -206 73 -206 c 16
 56.5498 -206 47.6992 -191.435 47 -175 c 4
 43 -81 34 -32 26 21 c 0
 24.5909 30.3352 30.2363 39.6152 41 40 c 0
 69 41 88.4043 39.2744 95 51 c 0
 104 67 115.574 90.2021 125 110 c 2
497 120 m 2
 371 539 l 2
 363.715 563.226 361.09 562.391 352 540 c 2
 175 104 l 2
 153 56 176 40 202 40 c 2
 493 40 l 2
 523.017 40 514 70 497 120 c 2
EndSplineSet
Validated: 33
EndChar

StartChar: afii10026
Encoding: 1048 1048 1107
Width: 807
VWidth: 0
Flags: W
HStem: -3 25<30.426 81.0001 273.196 324.967 484.426 535.64 725.336 776.967> 630 22<43.7112 74.3048 279.794 311.36 497.711 527.651 730.403 763.36>
VStem: 134.955 84.631<57.7304 119.675 179.555 594.571> 589.87 82.085<54.7052 492.777 552.953 593.936>
LayerCount: 2
Fore
SplineSet
589.052 552.953 m 1
 588.156 592.667 546.826 612.137 503.955 630 c 0
 493.955 634 494.955 652 503.955 652 c 0
 563.955 652 578.955 649 626.955 649 c 0
 677.955 649 698.955 652 756.955 652 c 0
 768.955 652 765.955 634 756.955 630 c 0
 733.638 620.284 671.955 600.341 671.955 557 c 2
 671.955 109 l 2
 671.955 90.9704 670.338 40.7 766.955 22 c 0
 782.937 18.9067 782.955 -3 766.955 -3 c 0
 709.955 -3 681.955 2 626.955 2 c 0
 574.955 2 547.955 -3 493.955 -3 c 0
 481.955 -3 476.955 19 493.955 22 c 0
 590.934 41.3958 588.109 90.3969 588.955 109 c 0
 590.58 170.74 590.885 375.689 589.87 492.777 c 1
 219.586 119.675 l 1
 220.547 87.4542 222.323 72.5927 238.955 57 c 0
 262.955 35 283.955 28 314.955 22 c 0
 330.937 18.9067 330.955 -3 314.955 -3 c 0
 257.955 -3 231.955 2 178.955 2 c 0
 124.955 2 93.9551 -3 39.9551 -3 c 0
 27.9551 -3 22.9551 19 39.9551 22 c 0
 134.948 40.9985 134.955 88.0633 134.955 109 c 2
 134.955 557 l 2
 134.955 598.964 60.4159 625.641 49.9551 630 c 0
 39.9551 634 40.9551 652 49.9551 652 c 0
 109.955 652 128.955 649 178.955 649 c 0
 227.955 649 246.955 652 304.955 652 c 0
 316.955 652 313.955 634 304.955 630 c 0
 271.81 616.189 222.483 599.983 219.955 557 c 0
 217.577 493.591 217.084 295.74 218.476 179.555 c 1
 589.052 552.953 l 1
EndSplineSet
Validated: 33
EndChar

StartChar: afii10027
Encoding: 1049 1049 1108
Width: 807
VWidth: 0
HStem: -3 25<30.426 81.0001 273.196 324.967 484.426 535.64 725.336 776.967> 630 22<43.7112 74.3048 279.794 311.36 497.711 527.651 730.403 763.36> 692 70<325.213 478.787>
VStem: 134.955 84.631<57.7304 119.675 179.555 594.571> 589.87 82.085<54.7052 492.777 552.953 593.936>
LayerCount: 2
Fore
SplineSet
284 825 m 0
 296 803 332 762 402 762 c 0
 472 762 508 803 520 825 c 0
 525 834 532 846 542 846 c 0
 552 846 552 835 552 822 c 0
 552 758 482 692 402 692 c 0
 322 692 252 747 252 822 c 0
 252 835 252 846 262 846 c 0
 272 846 279 834 284 825 c 0
EndSplineSet
Refer: 1107 1048 N 1 0 0 1 0 0 3
Validated: 1
EndChar

StartChar: afii10048
Encoding: 1070 1070 1115
Width: 1010
VWidth: 0
Flags: W
HStem: -14 39<574.922 736.757> -3 25<20.426 71.3514 258.196 309.967> 299.782 48.54<204.955 333.562> 625 39<560.121 720.033> 630 22<33.7112 65.5314 264.062 296.36>
VStem: 124.955 80<57.7032 299.782 348.322 594.883> 331.503 96.497<212.603 304.16 344.734 437.447> 863 97<210.695 446.554>
LayerCount: 2
Fore
SplineSet
639 625 m 0xb7
 503.82 625 428 485.18 428 350 c 0
 428 194.49 503.5 25 659 25 c 0
 794.11 25 863 169.89 863 305 c 0
 863 457.34 791.34 625 639 625 c 0xb7
29.9551 -3 m 0x67
 17.9551 -3 12.9551 19 29.9551 22 c 0
 59.9551 28 81.9551 35 105.955 57 c 0
 121.955 72 124.955 87 124.955 109 c 0
 124.955 277 124.955 380 124.955 557 c 0
 124.955 575 114.955 584 101.955 596 c 0
 80.9551 614 63.9551 620 39.9551 630 c 0
 29.9551 634 30.9551 652 39.9551 652 c 0
 99.9551 652 112.955 649 159.955 649 c 0
 210.955 649 231.955 652 289.955 652 c 0
 301.955 652 298.955 634 289.955 630 c 0x6f
 265.955 620 244.955 613 223.955 595 c 0
 212.955 586 204.955 574 204.955 557 c 2
 204.955 348.322 l 1
 332.033 344.734 l 1
 344.74 515.064 473.393 664 646 664 c 0
 823.37 664 960 512.369 960 335 c 0
 960 151.909 829.09 -14 646 -14 c 0xb7
 473.262 -14 340.639 133.216 331.503 304.16 c 5
 204.955 299.782 l 1
 204.955 109 l 2
 204.955 87 207.955 72 223.955 57 c 0
 247.955 35 268.955 28 299.955 22 c 0
 315.937 18.9067 315.955 -3 299.955 -3 c 0
 242.955 -3 214.955 2 159.955 2 c 0
 108.955 2 83.9551 -3 29.9551 -3 c 0x67
EndSplineSet
Validated: 1
EndChar

StartChar: afii10049
Encoding: 1071 1071 1067
Width: 682
VWidth: 0
Flags: W
HStem: -18 43<25.6246 102.067> 0 25<21.239 56.5 372.738 413.726> 2 647<478.754 633.044> 627 30<332.258 460.191>
VStem: 170 94<436.464 576.906> 477 82<63.2383 329.04 356.361 595.421>
LayerCount: 2
Fore
SplineSet
264 506 m 0x1c
 264 448 307 359 429 356 c 0
 460 355 476 353 477 393 c 0
 479 472 476 501 473 573 c 0
 472 603 464 627 409 627 c 0
 296 627 264 563 264 506 c 0x1c
477 309 m 0
 477 321 473 330 462 329 c 4
 444 327 426 324 395 312 c 4
 363 300 338 288 325 272 c 4
 296 237 277 204 241 100 c 4
 228 63 154 -18 97 -18 c 4x8c
 72 -18 38 -9 25 0 c 4x4c
 17 6 18 25 28 25 c 4
 137 26 164 123 179 176 c 4
 207 276 269 327 302 339 c 4
 309 341 307 346 302 348 c 0
 290 354 235 386 214 406 c 0
 199 421 170 463 170 508 c 0
 170 617 263 657 409 657 c 0x9c
 467 657 489 649 527 649 c 8
 569 649 593 652 635 652 c 8
 644 652 643 632 634 630 c 0
 595 619 592 617 572 596 c 0
 561 584 560 550 559 522 c 0
 554 372 554 264 559 114 c 0
 560 89 569 72 587 54 c 24
 607 34 631 39 653 20 c 24
 660 14 661 -2 653 -2 c 0
 625 -2 566 2 511 2 c 24x2c
 459 2 399 -2 379 -2 c 0
 369 -2 369 24 379 26 c 0
 443 42 472 67 473 108 c 0
 475 161 476 251 477 309 c 0
EndSplineSet
Validated: 33
EndChar

StartChar: afii10067
Encoding: 1074 1074 1139
Width: 442
VWidth: 0
Flags: W
HStem: -3 33<162.336 271.564> -2 24<11.0317 56.2483> 195 30<151.281 260.661> 377 29<23.1953 60.8074 153.858 265.082>
VStem: 80 70<44.3801 193.002 224.955 355.663> 306 74<253.247 350.143> 317 81<63.8318 162.072>
LayerCount: 2
Fore
SplineSet
150 250 m 0x3c
 151 227 159 226 171 225 c 0
 183 224 233.791015625 225.7421875 262 236 c 0
 273 240 306 262 306 302 c 0
 306 341 274 377 196 377 c 0
 158 377 150 365 149 344 c 0
 148 294 148 305 150 250 c 0x3c
195 -3 m 0xba
 181 -3 133 3 103 3 c 0
 74 3 34 -2 15 -2 c 0
 9 -2 9 21 15 22 c 0
 39 24 46.0908277602 24.802725882 60 37 c 24
 73.640625 48.9619140625 80 61 80 79 c 0
 80 176 80 209 80 314 c 0
 80 333 77.9453125 348.938476562 70 356 c 0
 61 364 55 366 28 373 c 0
 22 375 15.2939453125 403 27 403 c 16
 56 403 75.1796875 401 106 401 c 16
 133 401 155 406 196 406 c 0
 296 406 380 386 380 311 c 0x7c
 380 280 368 263 358 253 c 0
 343 239 328 229 301 218 c 0
 298.072265625 216.806640625 296.8984375 211.420898438 301 211 c 0
 340 207 398 178 398 120 c 0
 398 44 355 28 330 14 c 0
 303 -3 240 -3 195 -3 c 0xba
317 117 m 0xba
 317 156 279 176 260 183 c 0
 246.963867188 187.802734375 224 195 189 195 c 0
 177 195 164 192 158 187 c 0
 151 183 150 179 150 170 c 0
 148 129 148 117 150 80 c 0
 150.704101562 66.98046875 154 52 162 44 c 0
 169 36 187 30 205 30 c 0
 258 30 317 57 317 117 c 0xba
EndSplineSet
Validated: 33
EndChar

StartChar: afii10068
Encoding: 1075 1075 1177
Width: 360
VWidth: 0
Flags: W
HStem: -3 27<33.9975 86.1904 178.843 234.003> 269 21G<329 339> 361 38<170.051 294.65> 373 30<33.2031 78.154>
VStem: 96 71<31.541 360.822> 314 32<269.789 337.648>
LayerCount: 2
Fore
SplineSet
167 62 m 4xec
 167 35 192 30 212 24 c 4
 223 20 235 16 235 6 c 4
 235 -4 217 -3 212 -3 c 4
 173 -3 169 2 134 2 c 4
 99 2 95 -3 56 -3 c 4
 51 -3 33 -4 33 6 c 4
 33 16 45 20 56 24 c 4
 76 30 96 35 96 62 c 4
 96 291 96 110 96 300 c 4
 96 339 83 366 50 373 c 4
 44 374 33 380 33 390 c 4
 33 398 51 403 55 403 c 4xdc
 80 403 90 400 113 400 c 4
 116 400 199 397 267 399 c 4
 306 400 330 407 342 405 c 0
 343 405 351 400 350 394 c 0
 347 376 346 330 346 310 c 0
 346 292 345 269 333 269 c 0
 325 269 320 281 314 307 c 0
 309 329 286 360 265 360 c 4
 253 360 195 362 188 361 c 4
 171 358 167 334 167 323 c 4
 167 150 167 163 167 62 c 4xec
EndSplineSet
Validated: 33
EndChar

StartChar: afii10076
Encoding: 1082 1082 1033
Width: 450
VWidth: 0
Flags: W
HStem: -10 42<366.98 452.874> -3 27<16.9975 73.668 162.328 217.003> 205 22<150.005 179.513> 347 70<340.34 411.816> 378 27<22.9975 68.2703 164.052 209.003>
VStem: 82 68<31.6836 204.996 226.998 370.861>
LayerCount: 2
Fore
SplineSet
152 62 m 4xb4
 152 34 175 30 195 24 c 4
 206 20 218 16 218 6 c 4
 218 -4 200 -3 195 -3 c 4
 156 -3 152 2 117 2 c 4
 82 2 78 -3 39 -3 c 4
 34 -3 16 -4 16 6 c 4
 16 16 28 20 39 24 c 4
 59 30 82 31 82 59 c 4
 82 119 83 280 81 330 c 4
 80 359 65 372 45 378 c 4
 34 382 22 386 22 396 c 4
 22 406 40 405 45 405 c 4
 84 405 80 400 115 400 c 4
 150 400 148 405 187 405 c 4
 192 405 210 406 210 396 c 4
 210 386 198 382 187 378 c 4x6c
 167 372 151 358 151 328 c 4
 150 277 150 251 150 231 c 4
 150 224 156.435 227 161 227 c 4
 182 227 214.201 238.319 226 255 c 4
 255 296 291.468 343.719 307 363 c 4
 336 399 370 417 390 417 c 12
 414.544921875 417 434 387.914 434 372 c 4
 434 357 420 325 399 325 c 4
 384 325 374 347 361 347 c 4
 343 347 338.448 343.373 328 330 c 4
 315.688 314.24 276.991 260.122 258 233 c 4
 252.809 225.587 252.301 218.886 257 212 c 6
 347 74 l 6
 360.57 53.1924 387.96 35.5785 408 32 c 4
 436 27 453 22 453 12 c 4
 453 2 434 -10 386 -10 c 4
 361.286 -10 311.871 -4.02387 281 43 c 6
 195 174 l 6
 181.387 196.057 171 205 160 205 c 4
 155.452 205 150 199 150 199 c 4
 151 162 151 107 152 62 c 4xb4
EndSplineSet
Validated: 33
EndChar

StartChar: uni043B
Encoding: 1083 1083 1188
Width: 435
VWidth: 0
Flags: W
HStem: -3 27<-2.00253 54.242 142.802 198.003 254.997 295.998 397.061 442.016>
LayerCount: 2
Fore
SplineSet
66 45 m 0
 77 53 84.8388671875 72.5 93 92 c 24
 128.987304688 177.986328125 131 198 179 315 c 0
 181 321 183.872070312 330.716796875 186 341 c 24
 188.559570312 353.369140625 190 372 191 373 c 0
 200 375 217 397 223 404 c 0
 231 413 234 418 237 418 c 0
 241 418 242 415 244 409 c 0
 292 278 306 232 353 107 c 0
 361 84 381 36 420 24 c 0
 431.1875 20.5576171875 443 16 443 6 c 0
 443 -4 425 -3 420 -3 c 0
 381 -3 380 2 345 2 c 0
 310 2 316 -3 277 -3 c 0
 272 -3 254 -4 254 6 c 0
 254 16 266 20 277 24 c 0
 297 30 296 31 296 41 c 0
 296 49.5439453125 289 76 286 89 c 0
 281 114 228 261 217 292 c 0
 211 307 211 307 205 292 c 0
 188 250 154.663085938 166.46484375 129 84 c 24
 125.173828125 71.7060546875 126 58 130 51 c 0
 141 34 156 30 176 24 c 0
 187 20 199 16 199 6 c 0
 199 -4 181 -3 176 -3 c 0
 137 -3 133 2 98 2 c 0
 63 2 59 -3 20 -3 c 0
 15 -3 -3 -4 -3 6 c 0
 -3 16 9 20 20 24 c 0
 40 30 50.05078125 33.400390625 66 45 c 0
EndSplineSet
Validated: 33
EndChar

StartChar: afii10078
Encoding: 1084 1084 1168
Width: 720
VWidth: 0
Flags: W
HStem: -3 25<63.4305 108.043 194.751 230.873 472.645 503.031 634.934 671.673> 384 24<81.6118 124.979 603.831 648.924>
VStem: 156 13<79 320>
LayerCount: 2
Fore
SplineSet
375 -1 m 4
 364 -26 337 -18 328 1 c 0
 279 104 249.69921875 171.426757812 201 281 c 16
 197 290 193 291 192 281 c 8
 184.110351562 202.104492188 174 173 169 79 c 0
 169 61 177.018674598 52.1915240938 189 40 c 24
 200.370117188 28.4306640625 204 26 226 21 c 0
 232 20 238 -3 226 -3 c 0
 199 -3 179.0703125 1 149 1 c 24
 117.37109375 1 92 -3 68 -3 c 0
 60 -3 61 20 68 21 c 0
 90 26 97.3001237734 26.1685122541 112 37 c 24
 121.126953125 43.724609375 124 54 125 63 c 0
 142 188 156 262 156 320 c 0
 156 338 157 344 145 358 c 0
 131 374 104 380 87 384 c 0
 79 386 78 410 86 408 c 0
 160 396 225 410 228 403 c 0
 279 275 313 237 367 106 c 0
 372 93 377 91 383 104 c 0
 440 220 446 226 493 342 c 0
 503 365 515 400 520 400 c 0
 527 400 556 400 561 400 c 8
 596.275390625 400 619 405 651 409 c 0
 658 410 651 389 645 387 c 0
 622 380 621 385 603 373 c 0
 592 365 591.912024743 354.196288499 592 341 c 24
 592.697265625 236.359375 594.796652787 177.144509479 605 73 c 24
 606.2265625 60.482421875 611.286815718 52.9898773934 621 45 c 24
 636.490234375 32.2578125 646 26 667 22 c 0
 673 20 677 -3 667 -3 c 0
 646 -3 619 1 585 1 c 8
 543.630859375 1 495 -3 479 -3 c 0
 470 -3 470 20 476 22 c 0
 501 29 499.971649817 31.5215130744 511 43 c 24
 519.9453125 52.310546875 524.667625295 60.0927822773 525 73 c 24
 527.040039062 152.205078125 521 182 517 276 c 0
 516 292 513 289 507 276 c 0
 507 276 384 19 375 -1 c 4
EndSplineSet
Validated: 33
EndChar

StartChar: afii10084
Encoding: 1090 1090 1170
Width: 403
VWidth: 0
Flags: W
HStem: -3 27<95.9975 149.088 242.585 296.003> 362 38<63.5149 147.166 230.823 241 320 349.594>
VStem: 13 31<288.343 337.329> 160 70<31.9102 64 330 359.896> 361 30<284.331 347.652>
LayerCount: 2
Fore
SplineSet
320 400 m 16
 217 400 204 399 98 400 c 8
 81.1181640625 400.159179688 60 401 55 405 c 0
 49 410 43 414 40 414 c 0
 36 414 25 406 25 396 c 0
 25 371 18 324 13 306 c 0
 10.6064453125 297.381835938 10 284 19 284 c 0
 29 284 41.060546875 301.763671875 44 309 c 0
 57 341 75 362 93 362 c 0
 126 362 130 363 148 360 c 0
 159 358 160 342 160 330 c 0
 160 212 160 183 160 64 c 0
 161 36 138 30 118 24 c 0
 107 20 95 16 95 6 c 0
 95 -4 113 -3 118 -3 c 0
 157 -3 161 2 196 2 c 0
 231 2 235 -3 274 -3 c 0
 279 -3 297 -4 297 6 c 0
 297 16 285 20 274 24 c 0
 254 30 231 36 230 64 c 0
 230 171 230 221 230 330 c 0
 230 343 232 359 241 360 c 0
 253 361 291 362 325 362 c 0
 343 362 359 332 361 309 c 0
 361.676757812 301.21875 368 284 378 284 c 0
 387 284 391.637695312 297.079101562 391 306 c 0
 389 334 387 371 393 396 c 0
 395.333984375 405.723632812 386 414 382 414 c 0
 379 414 369 410 363 405 c 0
 358 401 336.8828125 400 320 400 c 16
EndSplineSet
Validated: 41
EndChar

StartChar: uni04D2
Encoding: 1234 1234 686
Width: 555
VWidth: 0
Flags: W
HStem: -3 24<32.5977 66.9577 182.452 212.952 498.912 529.715> 139 27<198.819 333.7> 443 20<310.5 314> 730 110<239.76 326.066 429.76 516.066>
VStem: 227.913 110<741.847 828.153> 417.913 110<741.847 828.153>
LayerCount: 2
Fore
SplineSet
472.913085938 840 m 24
 502.913085938 840 527.913085938 815 527.913085938 785 c 24
 527.913085938 755 502.913085938 730 472.913085938 730 c 24
 442.913085938 730 417.913085938 755 417.913085938 785 c 24
 417.913085938 815 442.913085938 840 472.913085938 840 c 24
282.913085938 840 m 24
 312.913085938 840 337.913085938 815 337.913085938 785 c 24
 337.913085938 755 312.913085938 730 282.913085938 730 c 24
 252.913085938 730 227.913085938 755 227.913085938 785 c 24
 227.913085938 815 252.913085938 840 282.913085938 840 c 24
EndSplineSet
Refer: 657 1040 N 1 0 0 1 0 0 3
Validated: 1
EndChar

StartChar: uni04D6
Encoding: 1238 1238 688
Width: 421
VWidth: 0
Flags: W
HStem: -3 24<11.2984 48.228> 3 36<164.786 334.559> 410 41<161.645 328.992> 429 21<22.3123 57.3167> 724 70<364.886 518.46>
VStem: 79 75<45.5227 217.677 253 406.614> 347 19<347.096 375.298>
LayerCount: 2
Fore
SplineSet
323.672851562 857 m 0x0e
 335.672851562 835 371.672851562 794 441.672851562 794 c 0
 511.672851562 794 547.672851562 835 559.672851562 857 c 0
 564.672851562 866 571.672851562 878 581.672851562 878 c 0
 591.672851562 878 591.672851562 867 591.672851562 854 c 0
 591.672851562 790 521.672851562 724 441.672851562 724 c 0
 361.672851562 724 291.672851562 779 291.672851562 854 c 0
 291.672851562 867 291.672851562 878 301.672851562 878 c 0
 311.672851562 878 318.672851562 866 323.672851562 857 c 0x0e
EndSplineSet
Refer: 659 1045 N 1 0 0 1 0 0 3
Validated: 1
EndChar

StartChar: uni1E02
Encoding: 7682 7682 355
Width: 441
VWidth: 0
Flags: W
HStem: -3 33<167.336 261.439> -2 24<11.0317 56.2483> 226 30<156.281 251.954> 421 32<157.017 260.919> 700 110<213.48 299.787>
VStem: 80 75<44.3801 224.002 255.954 398.616> 201.634 110<711.847 798.153> 289 74<280.709 401.848> 300 83<61.4542 200.229>
LayerCount: 2
Fore
SplineSet
256.633789062 810 m 24x3e
 286.633789062 810 311.633789062 785 311.633789062 755 c 24
 311.633789062 725 286.633789062 700 256.633789062 700 c 24
 226.633789062 700 201.633789062 725 201.633789062 755 c 24
 201.633789062 785 226.633789062 810 256.633789062 810 c 24x3e
EndSplineSet
Refer: 30 66 N 1 0 0 1 0 0 3
Validated: 1
EndChar

StartChar: uni1E06
Encoding: 7686 7686 359
Width: 441
VWidth: 0
Flags: W
HStem: -3 33<167.336 261.439> -2 24<11.0317 56.2483> 226 30<156.281 251.954> 421 32<157.017 260.919> 723 54<110.302 400.321>
VStem: 80 75<44.3801 224.002 255.954 398.616> 289 74<280.709 401.848> 300 83<61.4542 200.229>
LayerCount: 2
Fore
SplineSet
130.633789062 777 m 30x3c
 393.633789062 777 l 30
 401.084960938 777 408.990234375 770.068359375 406.633789062 763 c 28
 400.392578125 744.276367188 395.370117188 723 375.633789062 723 c 30
 120.633789062 723 l 30
 113.442382812 723 106.633789062 729 106.633789062 735 c 4
 106.633789062 744 111.768554688 777 130.633789062 777 c 30x3c
EndSplineSet
Refer: 30 66 N 1 0 0 1 0 0 3
Validated: 1
EndChar

StartChar: uni1E0E
Encoding: 7694 7694 367
Width: 519
VWidth: 0
Flags: W
HStem: -166 54<195.668 485.687> -3 36<172.032 337.854> 0 24<18.1875 49.5789> 422 31<142.997 312.128>
VStem: 83 75<45.4952 399.614> 421 85<131.07 322.825>
LayerCount: 2
Fore
SplineSet
216 -112 m 30x9c
 479 -112 l 30
 486.451171875 -112 494.356445312 -118.931640625 492 -126 c 28
 485.758789062 -144.723632812 480.736328125 -166 461 -166 c 30
 206 -166 l 30
 198.80859375 -166 192 -160 192 -154 c 4
 192 -145 197.134765625 -112 216 -112 c 30x9c
EndSplineSet
Refer: 43 68 N 1 0 0 1 0 0 3
Validated: 1
EndChar

StartChar: uni1E14
Encoding: 7700 7700 373
Width: 421
VWidth: 0
Flags: W
HStem: -3 24<11.2984 48.228> 3 36<164.786 334.559> 410 41<161.645 328.992> 429 21<22.3123 57.3167> 516 60<206.086 455.223> 912.269 72<48.4014 157.123>
VStem: 79 75<45.5227 217.677 253 406.614> 202.192 260 347 19<347.096 375.298>
LayerCount: 2
Fore
SplineSet
260.442382812 863.268554688 m 0x0e
 207.442382812 878.268554688 133.442382812 897.268554688 72.4423828125 912.268554688 c 0
 58.4423828125 915.268554688 40.4423828125 922.268554688 40.4423828125 938.268554688 c 24
 41.4423828125 960.268554688 54.4423828125 974.268554688 75.4423828125 984.268554688 c 24
 93.4423828125 993.268554688 109.442382812 989.268554688 127.442382812 979.268554688 c 0
 190.442382812 947.268554688 222.442382812 927.268554688 291.442382812 883.268554688 c 0
 302.442382812 876.268554688 302.442382812 863.268554688 294.442382812 861.268554688 c 0
 282.442382812 858.268554688 269.442382812 861.268554688 260.442382812 863.268554688 c 0x0e
EndSplineSet
Refer: 195 274 N 1 0 0 1 0 0 3
Validated: 33
EndChar

StartChar: uni1E16
Encoding: 7702 7702 375
Width: 421
VWidth: 0
Flags: W
HStem: -3 24<11.2984 48.228> 3 36<164.786 334.559> 410 41<161.645 328.992> 429 21<22.3123 57.3167> 516 60<206.086 455.223> 912.269 72<397.762 506.483>
VStem: 79 75<45.5227 217.677 253 406.614> 202.192 260 347 19<347.096 375.298>
LayerCount: 2
Fore
SplineSet
294.442382812 863.268554688 m 0x0e
 285.442382812 861.268554688 272.442382812 858.268554688 260.442382812 861.268554688 c 0
 252.442382812 863.268554688 252.442382812 876.268554688 263.442382812 883.268554688 c 0
 332.442382812 927.268554688 364.442382812 947.268554688 427.442382812 979.268554688 c 0
 445.442382812 989.268554688 461.442382812 993.268554688 479.442382812 984.268554688 c 24
 500.442382812 974.268554688 513.442382812 960.268554688 514.442382812 938.268554688 c 24
 514.442382812 922.268554688 496.442382812 915.268554688 482.442382812 912.268554688 c 0
 421.442382812 897.268554688 347.442382812 878.268554688 294.442382812 863.268554688 c 0x0e
EndSplineSet
Refer: 195 274 N 1 0 0 1 0 0 3
Validated: 33
EndChar

StartChar: uni1E18
Encoding: 7704 7704 377
Width: 421
VWidth: 0
Flags: W
HStem: -3 24<11.2984 48.228> 3 36<164.786 334.559> 410 41<161.645 328.992> 429 21<22.3123 57.3167> 700 21G<123.442 137.442>
VStem: 79 75<45.5227 217.677 253 406.614> 347 19<347.096 375.298>
LayerCount: 2
Fore
SplineSet
281.942382812 763 m 0x0e
 270.942382812 770 272.942382812 770 261.942382812 763 c 0
 235.942382812 748 231.942382812 744 182.942382812 718 c 0
 170.942382812 711 143.942382812 700 130.942382812 700 c 0
 115.942382812 700 110.942382812 712 122.942382812 722 c 0
 190.942382812 779 132.942382812 732 230.942382812 810 c 0
 250.942382812 826 256.942382812 832 271.942382812 832 c 0
 286.942382812 832 292.942382812 826 312.942382812 810 c 0
 410.942382812 732 352.942382812 779 420.942382812 722 c 0
 432.942382812 712 427.942382812 699 412.942382812 699 c 0
 399.942382812 699 389.942382812 707 377.942382812 714 c 0
 328.942382812 740 307.942382812 748 281.942382812 763 c 0x0e
EndSplineSet
Refer: 35 69 N 1 0 0 1 0 0 3
Validated: 1
EndChar

StartChar: uni1E1A
Encoding: 7706 7706 379
Width: 421
VWidth: 0
Flags: W
HStem: -3 24<11.2984 48.228> 3 36<164.786 334.559> 410 41<161.645 328.992> 429 21<22.3123 57.3167> 737 63<194.676 379.615> 745 63<163.795 351.709>
VStem: 79 75<45.5227 217.677 253 406.614> 347 19<347.096 375.298>
LayerCount: 2
Fore
SplineSet
111.942382812 731 m 0x07
 137.345703125 767.280273438 183.942382812 808 198.942382812 808 c 0x07
 223.942382812 808 330.942382812 800 355.942382812 800 c 0
 370.942382812 800 395.942382812 815 412.942382812 837 c 0
 417.942382812 844 435.791015625 824.497070312 431.942382812 819 c 4
 414.5 794.08984375 364.942382812 737 349.942382812 737 c 0x0b
 324.942382812 737 212.942382812 745 187.942382812 745 c 0
 172.942382812 745 148.942382812 731 132.942382812 713 c 0
 127.942382812 708 108.092773438 725.502929688 111.942382812 731 c 0x07
EndSplineSet
Refer: 35 69 N 1 0 0 1 0 0 3
Validated: 1
EndChar

StartChar: uni1E1C
Encoding: 7708 7708 381
Width: 421
VWidth: 0
Flags: W
HStem: -276.567 53<-94.7496 2.37057> -3 24<11.2984 48.228> 3 36<164.786 334.559> 410 41<161.645 328.992> 429 21<22.3123 57.3167> 724 70<364.933 518.506>
VStem: 12.5 53<-218.238 -139.899> 79 75<45.5227 217.677 253 406.614> 347 19<347.096 375.298>
LayerCount: 2
Fore
SplineSet
323.719726562 857 m 0x8780
 335.719726562 835 371.719726562 794 441.719726562 794 c 0
 511.719726562 794 547.719726562 835 559.719726562 857 c 0
 564.719726562 866 571.719726562 878 581.719726562 878 c 0
 591.719726562 878 591.719726562 867 591.719726562 854 c 0
 591.719726562 790 521.719726562 724 441.719726562 724 c 0
 361.719726562 724 291.719726562 779 291.719726562 854 c 0
 291.719726562 867 291.719726562 878 301.719726562 878 c 0
 311.719726562 878 318.719726562 866 323.719726562 857 c 0x8780
EndSplineSet
Refer: 333 552 N 1 0 0 1 0 0 3
Validated: 5
EndChar

StartChar: uni1E1E
Encoding: 7710 7710 383
Width: 379
VWidth: 0
Flags: W
HStem: -3 30<185.724 227.063> 212 35<158.005 280.438> 413 39<164.053 315.388> 423 27<26.4005 66.0696> 700 110<235.847 322.153>
VStem: 83 75<46.13 212.528 247.006 394.663> 224 110<711.847 798.153>
LayerCount: 2
Fore
SplineSet
279 810 m 24xce
 309 810 334 785 334 755 c 24
 334 725 309 700 279 700 c 24
 249 700 224 725 224 755 c 24
 224 785 249 810 279 810 c 24xce
EndSplineSet
Refer: 41 70 N 1 0 0 1 0 0 3
Validated: 1
EndChar

StartChar: uni1E20
Encoding: 7712 7712 385
Width: 507
VWidth: 0
Flags: W
HStem: -12 36<204.672 351.615> 178 34<300.377 373.835 453.411 491.445> 422 32<207.383 359.691> 723 54<253.668 543.687>
VStem: 20 84<132.931 310.158> 381 62<52.1408 156.612> 381 75<45.6252 162.706>
LayerCount: 2
Fore
SplineSet
274 777 m 30xf8
 537 777 l 30
 544.451171875 777 552.356445312 770.068359375 550 763 c 28
 543.758789062 744.276367188 538.736328125 723 519 723 c 30
 264 723 l 30
 256.80859375 723 250 729 250 735 c 4
 250 744 255.134765625 777 274 777 c 30xf8
EndSplineSet
Refer: 40 71 N 1 0 0 1 0 0 3
Validated: 1
EndChar

StartChar: uni1E22
Encoding: 7714 7714 387
Width: 605
VWidth: 0
Flags: W
HStem: -3 24<15.3203 59.3583 195.049 238.734 349.32 393.358 528.475 573.09> 216 37<164 423> 429 23<24.6897 54.4601 197.74 228.915 359.133 388.46 532.577 563.27> 700 110<379.801 466.107>
VStem: 89 75<45.4878 216.466 252.794 409.42> 367.954 110<711.847 798.153> 423 75<45.484 216.346 252.595 409.42>
LayerCount: 2
Fore
SplineSet
422.954101562 810 m 24xfc
 452.954101562 810 477.954101562 785 477.954101562 755 c 24
 477.954101562 725 452.954101562 700 422.954101562 700 c 24
 392.954101562 700 367.954101562 725 367.954101562 755 c 24
 367.954101562 785 392.954101562 810 422.954101562 810 c 24xfc
EndSplineSet
Refer: 47 72 N 1 0 0 1 0 0 3
Validated: 1
EndChar

StartChar: uni1E26
Encoding: 7718 7718 391
Width: 605
VWidth: 0
Flags: W
HStem: -3 24<15.3203 59.3583 195.049 238.734 349.32 393.358 528.475 573.09> 216 37<164 423> 429 23<24.6897 54.4601 197.74 228.915 359.133 388.46 532.577 563.27> 700 110<284.801 371.107 474.801 561.107>
VStem: 89 75<45.4878 216.466 252.794 409.42> 272.954 110<711.847 798.153> 423 75<45.484 216.346 252.595 409.42> 462.954 110<711.847 798.153>
LayerCount: 2
Fore
SplineSet
517.954101562 810 m 24xfd
 547.954101562 810 572.954101562 785 572.954101562 755 c 24
 572.954101562 725 547.954101562 700 517.954101562 700 c 24
 487.954101562 700 462.954101562 725 462.954101562 755 c 24
 462.954101562 785 487.954101562 810 517.954101562 810 c 24xfd
327.954101562 810 m 24
 357.954101562 810 382.954101562 785 382.954101562 755 c 24
 382.954101562 725 357.954101562 700 327.954101562 700 c 24
 297.954101562 700 272.954101562 725 272.954101562 755 c 24
 272.954101562 785 297.954101562 810 327.954101562 810 c 24
EndSplineSet
Refer: 47 72 N 1 0 0 1 0 0 3
Validated: 1
EndChar

StartChar: uni1E2A
Encoding: 7722 7722 395
Width: 605
VWidth: 0
Flags: W
HStem: -3 24<15.3203 59.3583 195.049 238.734 349.32 393.358 528.475 573.09> 216 37<164 423> 429 23<24.6897 54.4601 197.74 228.915 359.133 388.46 532.577 563.27> 692 70<346.213 499.787>
VStem: 89 75<45.4878 216.466 252.794 409.42> 423 75<45.484 216.346 252.595 409.42>
LayerCount: 2
Fore
SplineSet
305 825 m 0
 317 803 353 762 423 762 c 0
 493 762 529 803 541 825 c 0
 546 834 553 846 563 846 c 0
 573 846 573 835 573 822 c 0
 573 758 503 692 423 692 c 0
 343 692 273 747 273 822 c 0
 273 835 273 846 283 846 c 0
 293 846 300 834 305 825 c 0
EndSplineSet
Refer: 47 72 N 1 0 0 1 0 0 3
Validated: 1
EndChar

StartChar: uni1E2E
Encoding: 7726 7726 399
Width: 320
VWidth: 0
Flags: W
HStem: -3 24<54.3203 98.3584 234.049 277.734> 429 23<63.6897 93.4601 236.74 267.915> 512 100<39.2018 117.798 216.202 294.798> 922.269 72<301.273 409.994>
VStem: 28.5 100<522.702 601.298> 128 75<45.4878 409.42> 205.5 100<522.702 601.298>
LayerCount: 2
Fore
SplineSet
197.953125 873.268554688 m 0xf2
 188.953125 871.268554688 175.953125 868.268554688 163.953125 871.268554688 c 0
 155.953125 873.268554688 155.953125 886.268554688 166.953125 893.268554688 c 0
 235.953125 937.268554688 267.953125 957.268554688 330.953125 989.268554688 c 0
 348.953125 999.268554688 364.953125 1003.26855469 382.953125 994.268554688 c 24
 403.953125 984.268554688 416.953125 970.268554688 417.953125 948.268554688 c 24
 417.953125 932.268554688 399.953125 925.268554688 385.953125 922.268554688 c 0
 324.953125 907.268554688 250.953125 888.268554688 197.953125 873.268554688 c 0xf2
EndSplineSet
Refer: 144 207 N 1 0 0 1 0 0 3
Validated: 33
EndChar

StartChar: uni1E38
Encoding: 7736 7736 409
Width: 444
VWidth: 0
Flags: W
HStem: -1 22<19.3836 56.1625> 2 30<175.271 350.335> 428 24<31.3807 69.0295 192.197 246.501> 700 110<143.226 229.532> 870 54<15.973 305.992>
VStem: 89 75<40.2419 405.613> 131.379 110<711.847 798.153>
LayerCount: 2
Fore
SplineSet
36.3046875 924 m 30x38
 299.3046875 924 l 30
 306.755859375 924 314.661132812 917.068359375 312.3046875 910 c 28
 306.063476562 891.276367188 301.041015625 870 281.3046875 870 c 30
 26.3046875 870 l 30
 19.11328125 870 12.3046875 876 12.3046875 882 c 4
 12.3046875 891 17.439453125 924 36.3046875 924 c 30x38
EndSplineSet
Refer: 407 7734 N 1 0 0 1 0 0 3
Validated: 1
EndChar

StartChar: uni1E3C
Encoding: 7740 7740 413
Width: 444
VWidth: 0
Flags: W
HStem: -1 22<19.3836 56.1625> 2 30<175.271 350.335> 428 24<31.3807 69.0295 192.197 246.501> 700 21G<37.8789 51.8789>
VStem: 89 75<40.2419 405.613>
LayerCount: 2
Fore
SplineSet
196.37890625 763 m 0x38
 185.37890625 770 187.37890625 770 176.37890625 763 c 0
 150.37890625 748 146.37890625 744 97.37890625 718 c 0
 85.37890625 711 58.37890625 700 45.37890625 700 c 0
 30.37890625 700 25.37890625 712 37.37890625 722 c 0
 105.37890625 779 47.37890625 732 145.37890625 810 c 0
 165.37890625 826 171.37890625 832 186.37890625 832 c 0
 201.37890625 832 207.37890625 826 227.37890625 810 c 0
 325.37890625 732 267.37890625 779 335.37890625 722 c 0
 347.37890625 712 342.37890625 699 327.37890625 699 c 0
 314.37890625 699 304.37890625 707 292.37890625 714 c 0
 243.37890625 740 222.37890625 748 196.37890625 763 c 0x38
EndSplineSet
Refer: 36 76 N 1 0 0 1 0 0 3
Validated: 1
EndChar

StartChar: uni1E46
Encoding: 7750 7750 423
Width: 631
VWidth: 0
Flags: W
HStem: -14 21<510.919 529.176> -3 24<62.3025 102.76 192.857 225.931> 425 24<52.9092 103.383 431.989 469.611 576.188 609.063> 700 110<346.596 432.902>
VStem: 129 46<86.0745 336.475> 334.749 110<711.847 798.153> 507 40<109.998 403.448>
LayerCount: 2
Fore
SplineSet
389.749023438 810 m 24x3e
 419.749023438 810 444.749023438 785 444.749023438 755 c 24
 444.749023438 725 419.749023438 700 389.749023438 700 c 24
 359.749023438 700 334.749023438 725 334.749023438 755 c 24
 334.749023438 785 359.749023438 810 389.749023438 810 c 24x3e
EndSplineSet
Refer: 28 78 N 1 0 0 1 0 0 3
Validated: 1
EndChar

StartChar: uni1E4C
Encoding: 7756 7756 429
Width: 605
VWidth: 0
Flags: W
HStem: -15 37<242.335 386.997> 424 32<229.322 364.877> 515 66<261.585 396.262> 528 67<233.463 368.915> 932.755 72<641.401 750.122>
VStem: 66 85<119.755 310.96> 182 266 468 84<121.475 314.94>
LayerCount: 2
Fore
SplineSet
538.081054688 883.754882812 m 0xcf
 529.081054688 881.754882812 516.081054688 878.754882812 504.081054688 881.754882812 c 0
 496.081054688 883.754882812 496.081054688 896.754882812 507.081054688 903.754882812 c 0
 576.081054688 947.754882812 608.081054688 967.754882812 671.081054688 999.754882812 c 0
 689.081054688 1009.75488281 705.081054688 1013.75488281 723.081054688 1004.75488281 c 24
 744.081054688 994.754882812 757.081054688 980.754882812 758.081054688 958.754882812 c 24
 758.081054688 942.754882812 740.081054688 935.754882812 726.081054688 932.754882812 c 0
 665.081054688 917.754882812 591.081054688 898.754882812 538.081054688 883.754882812 c 0xcf
EndSplineSet
Refer: 149 213 N 1 0 0 1 0 0 3
Validated: 33
EndChar

StartChar: uni1E50
Encoding: 7760 7760 433
Width: 605
VWidth: 0
Flags: W
HStem: -15 37<242.335 386.997> 424 32<229.322 364.877> 516 60<176.737 425.875> 912.269 72<153.459 262.18>
VStem: 66 85<119.755 310.96> 172.844 260 468 84<121.475 314.94>
LayerCount: 2
Fore
SplineSet
365.5 863.268554688 m 0
 312.5 878.268554688 238.5 897.268554688 177.5 912.268554688 c 0
 163.5 915.268554688 145.5 922.268554688 145.5 938.268554688 c 24
 146.5 960.268554688 159.5 974.268554688 180.5 984.268554688 c 24
 198.5 993.268554688 214.5 989.268554688 232.5 979.268554688 c 0
 295.5 947.268554688 327.5 927.268554688 396.5 883.268554688 c 0
 407.5 876.268554688 407.5 863.268554688 399.5 861.268554688 c 0
 387.5 858.268554688 374.5 861.268554688 365.5 863.268554688 c 0
EndSplineSet
Refer: 241 332 N 1 0 0 1 0 0 3
Validated: 33
EndChar

StartChar: uni1E54
Encoding: 7764 7764 437
Width: 468
VWidth: 0
Flags: W
HStem: -3 28<47.0864 89.2581 215.97 257.384> 184 16<221.885 287.262> 424 29<193.049 306.797> 754 72<301.952 410.673>
VStem: 114 75<42.0916 400.614> 356 82<245.048 387.146>
LayerCount: 2
Fore
SplineSet
198.631835938 705 m 0
 189.631835938 703 176.631835938 700 164.631835938 703 c 0
 156.631835938 705 156.631835938 718 167.631835938 725 c 0
 236.631835938 769 268.631835938 789 331.631835938 821 c 0
 349.631835938 831 365.631835938 835 383.631835938 826 c 24
 404.631835938 816 417.631835938 802 418.631835938 780 c 24
 418.631835938 764 400.631835938 757 386.631835938 754 c 0
 325.631835938 739 251.631835938 720 198.631835938 705 c 0
EndSplineSet
Refer: 26 80 N 1 0 0 1 0 0 3
Validated: 33
EndChar

StartChar: uni1E5A
Encoding: 7770 7770 443
Width: 547
VWidth: 0
Flags: W
HStem: -177 110<346.513 432.819> -14 35<429.98 499.568> -4 25<14.438 48.7442 199.518 228.809> 424 29<25.5276 65.644 166.038 261.371>
VStem: 82 75<44.9388 203.042 233.012 401.614> 294 84<269.317 397.487> 334.666 110<-165.153 -78.8467>
LayerCount: 2
Fore
SplineSet
389.666015625 -67 m 24x9a
 419.666015625 -67 444.666015625 -92 444.666015625 -122 c 24
 444.666015625 -152 419.666015625 -177 389.666015625 -177 c 24
 359.666015625 -177 334.666015625 -152 334.666015625 -122 c 24
 334.666015625 -92 359.666015625 -67 389.666015625 -67 c 24x9a
EndSplineSet
Refer: 29 82 N 1 0 0 1 0 0 3
Validated: 1
EndChar

StartChar: uni1E5C
Encoding: 7772 7772 445
Width: 547
VWidth: 0
Flags: W
HStem: -177 110<346.513 432.819> -14 35<429.98 499.568> -4 25<14.438 48.7442 199.518 228.809> 424 29<25.5276 65.644 166.038 261.371> 724 54<136.456 426.475>
VStem: 82 75<44.9388 203.042 233.012 401.614> 294 84<269.317 397.487> 334.666 110<-165.153 -78.8467>
LayerCount: 2
Fore
SplineSet
156.788085938 778 m 30x9c
 419.788085938 778 l 30
 427.239257812 778 435.14453125 771.068359375 432.788085938 764 c 28
 426.546875 745.276367188 421.524414062 724 401.788085938 724 c 30
 146.788085938 724 l 30
 139.596679688 724 132.788085938 730 132.788085938 736 c 4
 132.788085938 745 137.922851562 778 156.788085938 778 c 30x9c
EndSplineSet
Refer: 443 7770 N 1 0 0 1 0 0 3
Validated: 1
EndChar

StartChar: uni1E64
Encoding: 7780 7780 453
Width: 373
VWidth: 0
Flags: W
HStem: -11 35<115.496 225.454> 423 35<143.458 252.654> 518 215 891.014 110<282.719 369.025>
VStem: 53 74<318.853 396.396> 192 178 247 84<53.416 148.023> 270.872 110<902.86 989.167> 288 32<337.527 385.485>
LayerCount: 2
Fore
SplineSet
325.872070312 1001.01367188 m 24xf9
 355.872070312 1001.01367188 380.872070312 976.013671875 380.872070312 946.013671875 c 24
 380.872070312 916.013671875 355.872070312 891.013671875 325.872070312 891.013671875 c 24
 295.872070312 891.013671875 270.872070312 916.013671875 270.872070312 946.013671875 c 24
 270.872070312 976.013671875 295.872070312 1001.01367188 325.872070312 1001.01367188 c 24xf9
EndSplineSet
Refer: 253 346 N 1 0 0 1 0 0 3
Validated: 1
EndChar

StartChar: uni1E6A
Encoding: 7786 7786 459
Width: 489
VWidth: 0
Flags: W
HStem: -3 25<121.73 164.086 296.914 339.703> 406 41<72.246 180.16 268.66 420.189> 700 110<298.163 384.47>
VStem: 23 34<358.276 395.937> 193 75<46.4591 403.896> 286.316 110<711.847 798.153> 424 28<347.656 398.928>
LayerCount: 2
Fore
SplineSet
341.31640625 810 m 24
 371.31640625 810 396.31640625 785 396.31640625 755 c 24
 396.31640625 725 371.31640625 700 341.31640625 700 c 24
 311.31640625 700 286.31640625 725 286.31640625 755 c 24
 286.31640625 785 311.31640625 810 341.31640625 810 c 24
EndSplineSet
Refer: 34 84 N 1 0 0 1 0 0 3
Validated: 1
EndChar

StartChar: uni1E6E
Encoding: 7790 7790 463
Width: 489
VWidth: 0
Flags: W
HStem: -3 25<121.73 164.086 296.914 339.703> 406 41<72.246 180.16 268.66 420.189> 723 54<194.985 485.004>
VStem: 23 34<358.276 395.937> 193 75<46.4591 403.896> 424 28<347.656 398.928>
LayerCount: 2
Fore
SplineSet
215.31640625 777 m 30
 478.31640625 777 l 30
 485.767578125 777 493.671875 770.068359375 491.31640625 763 c 28
 485.075195312 744.276367188 480.052734375 723 460.31640625 723 c 30
 205.31640625 723 l 30
 198.125 723 191.31640625 729 191.31640625 735 c 4
 191.31640625 744 196.451171875 777 215.31640625 777 c 30
EndSplineSet
Refer: 34 84 N 1 0 0 1 0 0 3
Validated: 1
EndChar

StartChar: uni1E70
Encoding: 7792 7792 465
Width: 489
VWidth: 0
Flags: W
HStem: -3 25<121.73 164.086 296.914 339.703> 406 41<72.246 180.16 268.66 420.189> 700 21G<192.816 206.816>
VStem: 23 34<358.276 395.937> 193 75<46.4591 403.896> 424 28<347.656 398.928>
LayerCount: 2
Fore
SplineSet
351.31640625 763 m 0
 340.31640625 770 342.31640625 770 331.31640625 763 c 0
 305.31640625 748 301.31640625 744 252.31640625 718 c 0
 240.31640625 711 213.31640625 700 200.31640625 700 c 0
 185.31640625 700 180.31640625 712 192.31640625 722 c 0
 260.31640625 779 202.31640625 732 300.31640625 810 c 0
 320.31640625 826 326.31640625 832 341.31640625 832 c 0
 356.31640625 832 362.31640625 826 382.31640625 810 c 0
 480.31640625 732 422.31640625 779 490.31640625 722 c 0
 502.31640625 712 497.31640625 699 482.31640625 699 c 0
 469.31640625 699 459.31640625 707 447.31640625 714 c 0
 398.31640625 740 377.31640625 748 351.31640625 763 c 0
EndSplineSet
Refer: 34 84 N 1 0 0 1 0 0 3
Validated: 1
EndChar

StartChar: uni1E74
Encoding: 7796 7796 469
Width: 563
VWidth: 0
Flags: W
HStem: -13 35<238.389 374.945> 425 25<35.0211 68.4721 167.691 200.01 380.363 415.874 499.32 542.199> 737 63<306.108 491.048> 745 63<275.228 463.142>
VStem: 80 75<101.856 419.064> 431 44<89.461 410.762>
LayerCount: 2
Fore
SplineSet
223.375 731 m 0xdc
 248.779296875 767.280273438 295.375 808 310.375 808 c 0xdc
 335.375 808 442.375 800 467.375 800 c 0
 482.375 800 507.375 815 524.375 837 c 0
 529.375 844 547.223632812 824.497070312 543.375 819 c 4
 525.932617188 794.08984375 476.375 737 461.375 737 c 0xec
 436.375 737 324.375 745 299.375 745 c 0
 284.375 745 260.375 731 244.375 713 c 0
 239.375 708 219.526367188 725.502929688 223.375 731 c 0xdc
EndSplineSet
Refer: 48 85 N 1 0 0 1 0 0 3
Validated: 1
EndChar

StartChar: uni1E76
Encoding: 7798 7798 471
Width: 563
VWidth: 0
Flags: W
HStem: -13 35<238.389 374.945> 425 25<35.0211 68.4721 167.691 200.01 380.363 415.874 499.32 542.199> 700 21G<234.875 248.875>
VStem: 80 75<101.856 419.064> 431 44<89.461 410.762>
LayerCount: 2
Fore
SplineSet
393.375 763 m 0
 382.375 770 384.375 770 373.375 763 c 0
 347.375 748 343.375 744 294.375 718 c 0
 282.375 711 255.375 700 242.375 700 c 0
 227.375 700 222.375 712 234.375 722 c 0
 302.375 779 244.375 732 342.375 810 c 0
 362.375 826 368.375 832 383.375 832 c 0
 398.375 832 404.375 826 424.375 810 c 0
 522.375 732 464.375 779 532.375 722 c 0
 544.375 712 539.375 699 524.375 699 c 0
 511.375 699 501.375 707 489.375 714 c 0
 440.375 740 419.375 748 393.375 763 c 0
EndSplineSet
Refer: 48 85 N 1 0 0 1 0 0 3
Validated: 1
EndChar

StartChar: uni1E7C
Encoding: 7804 7804 477
Width: 537
VWidth: 0
Flags: W
HStem: 432 20<189.955 227.359 349.151 374.832 477.195 515.433> 737 63<249.108 434.048> 745 63<218.228 406.142>
LayerCount: 2
Fore
SplineSet
166.375 731 m 0xa0
 191.779296875 767.280273438 238.375 808 253.375 808 c 0xa0
 278.375 808 385.375 800 410.375 800 c 0
 425.375 800 450.375 815 467.375 837 c 0
 472.375 844 490.223632812 824.497070312 486.375 819 c 4
 468.932617188 794.08984375 419.375 737 404.375 737 c 0xc0
 379.375 737 267.375 745 242.375 745 c 0
 227.375 745 203.375 731 187.375 713 c 0
 182.375 708 162.526367188 725.502929688 166.375 731 c 0xa0
EndSplineSet
Refer: 37 86 N 1 0 0 1 0 0 3
Validated: 1
EndChar

StartChar: Wgrave
Encoding: 7808 7808 481
Width: 719
VWidth: 0
Flags: W
HStem: 425 23<9.83059 40.5764 151.975 197.041 218.111 254.615 471.288 519.559 540.984 576.861 656.654 698.004> 754 72<337.709 446.43>
LayerCount: 2
Fore
SplineSet
549.75 705 m 0
 496.75 720 422.75 739 361.75 754 c 0
 347.75 757 329.75 764 329.75 780 c 24
 330.75 802 343.75 816 364.75 826 c 24
 382.75 835 398.75 831 416.75 821 c 0
 479.75 789 511.75 769 580.75 725 c 0
 591.75 718 591.75 705 583.75 703 c 0
 571.75 700 558.75 703 549.75 705 c 0
EndSplineSet
Refer: 38 87 N 1 0 0 1 0 0 3
Validated: 33
EndChar

StartChar: Wacute
Encoding: 7810 7810 483
Width: 719
VWidth: 0
Flags: W
HStem: 425 23<9.83059 40.5764 151.975 197.041 218.111 254.615 471.288 519.559 540.984 576.861 656.654 698.004> 754 72<497.07 605.791>
LayerCount: 2
Fore
SplineSet
393.75 705 m 0
 384.75 703 371.75 700 359.75 703 c 0
 351.75 705 351.75 718 362.75 725 c 0
 431.75 769 463.75 789 526.75 821 c 0
 544.75 831 560.75 835 578.75 826 c 24
 599.75 816 612.75 802 613.75 780 c 24
 613.75 764 595.75 757 581.75 754 c 0
 520.75 739 446.75 720 393.75 705 c 0
EndSplineSet
Refer: 38 87 N 1 0 0 1 0 0 3
Validated: 33
EndChar

StartChar: uni1E86
Encoding: 7814 7814 487
Width: 719
VWidth: 0
Flags: W
HStem: 425 23<9.83059 40.5764 151.975 197.041 218.111 254.615 471.288 519.559 540.984 576.861 656.654 698.004> 706 110<462.597 548.903>
VStem: 450.75 110<717.847 804.153>
LayerCount: 2
Fore
SplineSet
505.75 816 m 24
 535.75 816 560.75 791 560.75 761 c 24
 560.75 731 535.75 706 505.75 706 c 24
 475.75 706 450.75 731 450.75 761 c 24
 450.75 791 475.75 816 505.75 816 c 24
EndSplineSet
Refer: 38 87 N 1 0 0 1 0 0 3
Validated: 1
EndChar

StartChar: uni1E8A
Encoding: 7818 7818 491
Width: 543
VWidth: 0
Flags: W
HStem: -3 25<29.7561 76.4045 163.306 204.768 279.048 328.52 461.198 502.169> 424 25<44.5154 100.871 206.767 243.127 335.674 361.286> 700 110<328.107 414.414>
VStem: 316.261 110<711.847 798.153>
LayerCount: 2
Fore
SplineSet
371.260742188 810 m 24
 401.260742188 810 426.260742188 785 426.260742188 755 c 24
 426.260742188 725 401.260742188 700 371.260742188 700 c 24
 341.260742188 700 316.260742188 725 316.260742188 755 c 24
 316.260742188 785 341.260742188 810 371.260742188 810 c 24
EndSplineSet
Refer: 63 88 N 1 0 0 1 0 0 3
Validated: 1
EndChar

StartChar: uni1E90
Encoding: 7824 7824 497
Width: 466
VWidth: 0
Flags: W
HStem: -3 42<162.888 381.386> -2 19<31.8216 38.9008> 418 33<101.291 300.976> 700 21G<186.389 200.389>
VStem: 44 35<355.125 403.266>
LayerCount: 2
Fore
SplineSet
344.888671875 763 m 0x38
 333.888671875 770 335.888671875 770 324.888671875 763 c 0
 298.888671875 748 294.888671875 744 245.888671875 718 c 0
 233.888671875 711 206.888671875 700 193.888671875 700 c 0
 178.888671875 700 173.888671875 712 185.888671875 722 c 0
 253.888671875 779 195.888671875 732 293.888671875 810 c 0
 313.888671875 826 319.888671875 832 334.888671875 832 c 0
 349.888671875 832 355.888671875 826 375.888671875 810 c 0
 473.888671875 732 415.888671875 779 483.888671875 722 c 0
 495.888671875 712 490.888671875 699 475.888671875 699 c 0
 462.888671875 699 452.888671875 707 440.888671875 714 c 0
 391.888671875 740 370.888671875 748 344.888671875 763 c 0x38
EndSplineSet
Refer: 64 90 N 1 0 0 1 0 0 3
Validated: 1
EndChar

StartChar: uni1E92
Encoding: 7826 7826 499
Width: 466
VWidth: 0
Flags: W
HStem: -3 42<162.888 381.386> -2 19<31.8216 38.9008> 418 33<101.291 300.976> 705 110<263.735 350.042>
VStem: 44 35<355.125 403.266> 251.889 110<716.847 803.153>
LayerCount: 2
Fore
SplineSet
306.888671875 815 m 24x3c
 336.888671875 815 361.888671875 790 361.888671875 760 c 24
 361.888671875 730 336.888671875 705 306.888671875 705 c 24
 276.888671875 705 251.888671875 730 251.888671875 760 c 24
 251.888671875 790 276.888671875 815 306.888671875 815 c 24x3c
EndSplineSet
Refer: 64 90 N 1 0 0 1 0 0 3
Validated: 1
EndChar

StartChar: uni1E94
Encoding: 7828 7828 501
Width: 466
VWidth: 0
Flags: W
HStem: -3 42<162.888 381.386> -2 19<31.8216 38.9008> 418 33<101.291 300.976> 723 54<188.557 478.576>
VStem: 44 35<355.125 403.266>
LayerCount: 2
Fore
SplineSet
208.888671875 777 m 30x38
 471.888671875 777 l 30
 479.33984375 777 487.245117188 770.068359375 484.888671875 763 c 28
 478.647460938 744.276367188 473.625 723 453.888671875 723 c 30
 198.888671875 723 l 30
 191.697265625 723 184.888671875 729 184.888671875 735 c 4
 184.888671875 744 190.0234375 777 208.888671875 777 c 30x38
EndSplineSet
Refer: 64 90 N 1 0 0 1 0 0 3
Validated: 1
EndChar

StartChar: uni1EA0
Encoding: 7840 7840 508
Width: 555
VWidth: 0
Flags: W
HStem: -3 24<32.5977 66.9577 182.452 212.952 498.912 529.715> 139 27<198.819 333.7> 443 20<310.5 314> 700 110<319.76 406.066>
VStem: 307.913 110<711.847 798.153>
LayerCount: 2
Fore
SplineSet
362.913085938 810 m 24
 392.913085938 810 417.913085938 785 417.913085938 755 c 24
 417.913085938 725 392.913085938 700 362.913085938 700 c 24
 332.913085938 700 307.913085938 725 307.913085938 755 c 24
 307.913085938 785 332.913085938 810 362.913085938 810 c 24
EndSplineSet
Refer: 31 65 N 1 0 0 1 0 0 3
Validated: 1
EndChar

StartChar: uni1EA6
Encoding: 7846 7846 512
Width: 555
VWidth: 0
Flags: W
HStem: -3 24<32.5977 66.9576 182.452 212.952 498.912 529.715> 139 27<198.819 333.7> 443 20<310.5 314> 502 201 944.269 72<133.872 242.593>
VStem: 182 212
LayerCount: 2
Fore
SplineSet
345.913085938 895.268554688 m 0
 292.913085938 910.268554688 218.913085938 929.268554688 157.913085938 944.268554688 c 0
 143.913085938 947.268554688 125.913085938 954.268554688 125.913085938 970.268554688 c 24
 126.913085938 992.268554688 139.913085938 1006.26855469 160.913085938 1016.26855469 c 24
 178.913085938 1025.26855469 194.913085938 1021.26855469 212.913085938 1011.26855469 c 0
 275.913085938 979.268554688 307.913085938 959.268554688 376.913085938 915.268554688 c 0
 387.913085938 908.268554688 387.913085938 895.268554688 379.913085938 893.268554688 c 0
 367.913085938 890.268554688 354.913085938 893.268554688 345.913085938 895.268554688 c 0
EndSplineSet
Refer: 132 194 N 1 0 0 1 0 0 3
Validated: 33
EndChar

StartChar: uni1EAE
Encoding: 7854 7854 518
Width: 555
VWidth: 0
Flags: W
HStem: -3 24<32.5977 66.9577 182.452 212.952 498.912 529.715> 139 27<198.819 333.7> 443 20<310.5 314> 523 55<258.618 365.382> 958.269 72<483.233 591.954>
VStem: 205 32<609.396 662.922> 387 32<610.031 662.922>
LayerCount: 2
Fore
SplineSet
379.913085938 909.268554688 m 0
 370.913085938 907.268554688 357.913085938 904.268554688 345.913085938 907.268554688 c 0
 337.913085938 909.268554688 337.913085938 922.268554688 348.913085938 929.268554688 c 0
 417.913085938 973.268554688 449.913085938 993.268554688 512.913085938 1025.26855469 c 0
 530.913085938 1035.26855469 546.913085938 1039.26855469 564.913085938 1030.26855469 c 24
 585.913085938 1020.26855469 598.913085938 1006.26855469 599.913085938 984.268554688 c 24
 599.913085938 968.268554688 581.913085938 961.268554688 567.913085938 958.268554688 c 0
 506.913085938 943.268554688 432.913085938 924.268554688 379.913085938 909.268554688 c 0
EndSplineSet
Refer: 181 258 N 1 0 0 1 0 0 3
Validated: 33
EndChar

StartChar: uni1EB0
Encoding: 7856 7856 520
Width: 555
VWidth: 0
Flags: W
HStem: -3 24<32.5977 66.9577 182.452 212.952 498.912 529.715> 139 27<198.819 333.7> 443 20<310.5 314> 523 55<258.618 365.382> 958.269 72<133.872 242.593>
VStem: 205 32<609.396 662.922> 387 32<610.031 662.922>
LayerCount: 2
Fore
SplineSet
345.913085938 909.268554688 m 0
 292.913085938 924.268554688 218.913085938 943.268554688 157.913085938 958.268554688 c 0
 143.913085938 961.268554688 125.913085938 968.268554688 125.913085938 984.268554688 c 24
 126.913085938 1006.26855469 139.913085938 1020.26855469 160.913085938 1030.26855469 c 24
 178.913085938 1039.26855469 194.913085938 1035.26855469 212.913085938 1025.26855469 c 0
 275.913085938 993.268554688 307.913085938 973.268554688 376.913085938 929.268554688 c 0
 387.913085938 922.268554688 387.913085938 909.268554688 379.913085938 907.268554688 c 0
 367.913085938 904.268554688 354.913085938 907.268554688 345.913085938 909.268554688 c 0
EndSplineSet
Refer: 181 258 N 1 0 0 1 0 0 3
Validated: 33
EndChar

StartChar: uni1EB4
Encoding: 7860 7860 522
Width: 555
VWidth: 0
Flags: W
HStem: -3 24<32.5977 66.9577 182.452 212.952 498.912 529.715> 139 27<198.819 333.7> 443 20<310.5 314> 523 55<258.618 365.382> 949.977 63<285.635 470.575> 957.977 63<254.755 442.669>
VStem: 205 32<609.396 662.922> 387 32<610.031 662.922>
LayerCount: 2
Fore
SplineSet
202.90234375 943.9765625 m 0xf7
 228.305664062 980.256835938 274.90234375 1020.9765625 289.90234375 1020.9765625 c 0xf7
 314.90234375 1020.9765625 421.90234375 1012.9765625 446.90234375 1012.9765625 c 0
 461.90234375 1012.9765625 486.90234375 1027.9765625 503.90234375 1049.9765625 c 0
 508.90234375 1056.9765625 526.750976562 1037.47363281 522.90234375 1031.9765625 c 4
 505.459960938 1007.06738281 455.90234375 949.9765625 440.90234375 949.9765625 c 0xfb
 415.90234375 949.9765625 303.90234375 957.9765625 278.90234375 957.9765625 c 0
 263.90234375 957.9765625 239.90234375 943.9765625 223.90234375 925.9765625 c 0
 218.90234375 920.9765625 199.052734375 938.48046875 202.90234375 943.9765625 c 0xf7
EndSplineSet
Refer: 181 258 N 1 0 0 1 0 0 3
Validated: 1
EndChar

StartChar: uni1EB6
Encoding: 7862 7862 524
Width: 555
VWidth: 0
Flags: W
HStem: -3 24<32.5977 66.9577 182.452 212.952 498.912 529.715> 139 27<198.819 333.7> 443 20<310.5 314> 700 110<319.76 406.066> 870 70<286.126 439.7>
VStem: 307.913 110<711.847 798.153>
LayerCount: 2
Fore
SplineSet
244.913085938 1003 m 0
 256.913085938 981 292.913085938 940 362.913085938 940 c 0
 432.913085938 940 468.913085938 981 480.913085938 1003 c 0
 485.913085938 1012 492.913085938 1024 502.913085938 1024 c 0
 512.913085938 1024 512.913085938 1013 512.913085938 1000 c 0
 512.913085938 936 442.913085938 870 362.913085938 870 c 0
 282.913085938 870 212.913085938 925 212.913085938 1000 c 0
 212.913085938 1013 212.913085938 1024 222.913085938 1024 c 0
 232.913085938 1024 239.913085938 1012 244.913085938 1003 c 0
EndSplineSet
Refer: 508 7840 N 1 0 0 1 0 0 3
Validated: 1
EndChar

StartChar: uni1EBE
Encoding: 7870 7870 530
Width: 421
VWidth: 0
Flags: W
HStem: -3 24<11.2984 48.2279> 3 36<164.786 334.559> 410 41<161.645 328.992> 429 21<22.3123 57.3167> 504 201 944.269 72<392.262 500.983>
VStem: 79 75<45.5227 217.677 253 406.614> 100 212 347 19<347.096 375.298>
LayerCount: 2
Fore
SplineSet
288.942382812 895.268554688 m 0x0c80
 279.942382812 893.268554688 266.942382812 890.268554688 254.942382812 893.268554688 c 0
 246.942382812 895.268554688 246.942382812 908.268554688 257.942382812 915.268554688 c 0
 326.942382812 959.268554688 358.942382812 979.268554688 421.942382812 1011.26855469 c 0
 439.942382812 1021.26855469 455.942382812 1025.26855469 473.942382812 1016.26855469 c 24
 494.942382812 1006.26855469 507.942382812 992.268554688 508.942382812 970.268554688 c 24
 508.942382812 954.268554688 490.942382812 947.268554688 476.942382812 944.268554688 c 0
 415.942382812 929.268554688 341.942382812 910.268554688 288.942382812 895.268554688 c 0x0c80
EndSplineSet
Refer: 139 202 N 1 0 0 1 0 0 3
Validated: 33
EndChar

StartChar: uni1ECA
Encoding: 7882 7882 538
Width: 320
VWidth: 0
Flags: W
HStem: -3 24<54.3203 98.3583 234.049 277.734> 429 23<63.6897 93.4601 236.74 267.915> 700 110<137.8 224.106>
VStem: 125.953 110<711.847 798.153> 128 75<45.4878 409.42>
LayerCount: 2
Fore
SplineSet
180.953125 810 m 24xf0
 210.953125 810 235.953125 785 235.953125 755 c 24
 235.953125 725 210.953125 700 180.953125 700 c 24
 150.953125 700 125.953125 725 125.953125 755 c 24
 125.953125 785 150.953125 810 180.953125 810 c 24xf0
EndSplineSet
Refer: 33 73 N 1 0 0 1 0 0 3
Validated: 1
EndChar

StartChar: uni1ED2
Encoding: 7890 7890 544
Width: 605
VWidth: 0
Flags: W
HStem: -15 37<242.335 386.997> 424 32<229.322 364.877> 504 201 944.269 72<147.959 256.68>
VStem: 66 85<119.755 310.96> 196 212 468 84<121.475 314.94>
LayerCount: 2
Fore
SplineSet
360 895.268554688 m 0
 307 910.268554688 233 929.268554688 172 944.268554688 c 0
 158 947.268554688 140 954.268554688 140 970.268554688 c 24
 141 992.268554688 154 1006.26855469 175 1016.26855469 c 24
 193 1025.26855469 209 1021.26855469 227 1011.26855469 c 0
 290 979.268554688 322 959.268554688 391 915.268554688 c 0
 402 908.268554688 402 895.268554688 394 893.268554688 c 0
 382 890.268554688 369 893.268554688 360 895.268554688 c 0
EndSplineSet
Refer: 148 212 N 1 0 0 1 0 0 3
Validated: 33
EndChar

StartChar: uni1EDA
Encoding: 7898 7898 550
Width: 783
VWidth: 0
Flags: W
HStem: -14 39<314.694 492.027> 625 39<291.968 474.205> 776.357 72<564.611 673.332>
VStem: 50 97<219.261 447.814> 626 97<206.698 451.269> 706 56<605.697 675.5>
LayerCount: 2
Fore
SplineSet
461.291015625 727.357421875 m 0xf0
 452.291015625 725.357421875 439.291015625 722.357421875 427.291015625 725.357421875 c 0
 419.291015625 727.357421875 419.291015625 740.357421875 430.291015625 747.357421875 c 0
 499.291015625 791.357421875 531.291015625 811.357421875 594.291015625 843.357421875 c 0
 612.291015625 853.357421875 628.291015625 857.357421875 646.291015625 848.357421875 c 24
 667.291015625 838.357421875 680.291015625 824.357421875 681.291015625 802.357421875 c 24
 681.291015625 786.357421875 663.291015625 779.357421875 649.291015625 776.357421875 c 0
 588.291015625 761.357421875 514.291015625 742.357421875 461.291015625 727.357421875 c 0xf0
EndSplineSet
Refer: 288 416 N 1 0 0 1 0 0 3
Validated: 1
EndChar

StartChar: uni1EDC
Encoding: 7900 7900 552
Width: 783
VWidth: 0
Flags: W
HStem: -14 39<314.694 492.027> 625 39<291.968 474.205> 776.357 72<215.25 323.971>
VStem: 50 97<219.261 447.814> 626 97<206.698 451.269> 706 56<605.697 675.5>
LayerCount: 2
Fore
SplineSet
427.291015625 727.357421875 m 0xf0
 374.291015625 742.357421875 300.291015625 761.357421875 239.291015625 776.357421875 c 0
 225.291015625 779.357421875 207.291015625 786.357421875 207.291015625 802.357421875 c 24
 208.291015625 824.357421875 221.291015625 838.357421875 242.291015625 848.357421875 c 24
 260.291015625 857.357421875 276.291015625 853.357421875 294.291015625 843.357421875 c 0
 357.291015625 811.357421875 389.291015625 791.357421875 458.291015625 747.357421875 c 0
 469.291015625 740.357421875 469.291015625 727.357421875 461.291015625 725.357421875 c 0
 449.291015625 722.357421875 436.291015625 725.357421875 427.291015625 727.357421875 c 0xf0
EndSplineSet
Refer: 288 416 N 1 0 0 1 0 0 3
Validated: 1
EndChar

StartChar: Ygrave
Encoding: 7922 7922 560
Width: 494
VWidth: 0
Flags: W
HStem: -4 27<127.655 172.989 302.406 347.107> 426 24<23.6411 60.8134 166.547 201.245 302.585 337.089 417.265 457.175> 754 72<171.63 280.351>
VStem: 200 75<47.4598 248.634>
LayerCount: 2
Fore
SplineSet
383.670898438 705 m 0
 330.670898438 720 256.670898438 739 195.670898438 754 c 0
 181.670898438 757 163.670898438 764 163.670898438 780 c 24
 164.670898438 802 177.670898438 816 198.670898438 826 c 24
 216.670898438 835 232.670898438 831 250.670898438 821 c 0
 313.670898438 789 345.670898438 769 414.670898438 725 c 0
 425.670898438 718 425.670898438 705 417.670898438 703 c 0
 405.670898438 700 392.670898438 703 383.670898438 705 c 0
EndSplineSet
Refer: 49 89 N 1 0 0 1 0 0 3
Validated: 33
EndChar

StartChar: uni1EF4
Encoding: 7924 7924 562
Width: 494
VWidth: 0
Flags: W
HStem: -4 27<127.655 172.989 302.406 347.107> 426 24<23.6411 60.8134 166.547 201.245 302.585 337.089 417.265 457.175> 700 110<271.518 357.824>
VStem: 200 75<47.4598 248.634> 259.671 110<711.847 798.153>
LayerCount: 2
Fore
SplineSet
314.670898438 810 m 24xe8
 344.670898438 810 369.670898438 785 369.670898438 755 c 24
 369.670898438 725 344.670898438 700 314.670898438 700 c 24
 284.670898438 700 259.670898438 725 259.670898438 755 c 24
 259.670898438 785 284.670898438 810 314.670898438 810 c 24xe8
EndSplineSet
Refer: 49 89 N 1 0 0 1 0 0 3
Validated: 1
EndChar

StartChar: uni1FD8
Encoding: 8152 8152 746
Width: 320
VWidth: 0
Flags: W
HStem: -3 24<54.3203 98.3583 234.049 277.734> 429 23<63.6897 93.4601 236.74 267.915> 724 70<104.666 258.24>
VStem: 31.4531 300<790 867> 128 75<45.4878 409.42>
LayerCount: 2
Fore
SplineSet
63.453125 857 m 0xf0
 75.453125 835 111.453125 794 181.453125 794 c 0
 251.453125 794 287.453125 835 299.453125 857 c 0
 304.453125 866 311.453125 878 321.453125 878 c 0
 331.453125 878 331.453125 867 331.453125 854 c 0
 331.453125 790 261.453125 724 181.453125 724 c 0
 101.453125 724 31.453125 779 31.453125 854 c 0
 31.453125 867 31.453125 878 41.453125 878 c 0
 51.453125 878 58.453125 866 63.453125 857 c 0xf0
EndSplineSet
Refer: 636 921 N 1 0 0 1 0 0 3
Validated: 1
EndChar

StartChar: figuredash
Encoding: 8210 8210 777
Width: 528
VWidth: 0
Flags: W
HStem: 181 60<15.8933 505.031>
LayerCount: 2
Fore
SplineSet
36 241 m 26
 499 241 l 26
 506 241 514 234 512 227 c 24
 506 206 503 181 481 181 c 26
 26 181 l 26
 19 181 12 187 12 193 c 0
 12 202 15 241 36 241 c 26
EndSplineSet
Validated: 1
EndChar

StartChar: dagger
Encoding: 8224 8224 1161
Width: 440
VWidth: 0
Flags: W
HStem: 381 70<37.6364 187.77 250.956 402.848> 401 30<112.929 204.526 235.249 325.185>
VStem: 174 92<163.718 354.839> 185 70<444.013 631.908> 205 30<-116.979 120.306 347.649 400.991 431.003 543.98>
LayerCount: 2
Fore
SplineSet
220 635 m 4x50
 237 635 255 624.8 255 601 c 8x50
 255 538.114 235 503.886 235 441 c 16
 235 435.2 240.202 431 246 431 c 16x48
 287.95 431 320.4 451 369 451 c 16
 391.62 451 405 438.62 405 416 c 8
 405 397.505 393.99 381 373 381 c 8x88
 324.015 381 290.87 401 249 401 c 8
 240.411 401 235 389.42 235 384 c 8x48
 235 355.562 266 334 266 318 c 0
 266 300 239 289 239 -68 c 0
 239 -88.5 237 -117 220 -117 c 0
 199.924 -117 199 -90.0761 199 -70 c 0
 199 302 174 299 174 318 c 0x60
 174 333 205 354.915 205 383 c 16
 205 388.3 199.3 401 194 401 c 8x48
 144.63 401 118.2 381 69 381 c 8
 49.9697 381 35 397.42 35 416 c 8
 35 435.03 49.9697 451 69 451 c 16x88
 110.54 451 142.17 431 190 431 c 16
 197.25 431 205 433.969 205 441 c 16x48
 205 505.82 185 536.18 185 601 c 8
 185 620.03 203 635 220 635 c 4x50
EndSplineSet
Validated: 1
EndChar

StartChar: uni2070
Encoding: 8304 8304 796
Width: 300
VWidth: 0
Flags: W
HStem: 433 22<118.313 185.831> 760 25<113.298 185.129>
VStem: 15 60<508.02 700.887> 225 60<520.43 713.872>
LayerCount: 2
Fore
SplineSet
149 760 m 12
 86.9004 760 75 681.1 75 619 c 4
 75 548.17 82.1699 455 153 455 c 20
 218.59 455 225 541.41 225 607 c 20
 225 673.63 215.63 760 149 760 c 12
160 785 m 20
 241.04 785 285 700.04 285 619 c 20
 285 527.5 233.5 433 142 433 c 12
 57.6699 433 15 523.67 15 608 c 12
 15 697.24 70.7598 785 160 785 c 20
EndSplineSet
Validated: 1
EndChar

StartChar: uni2100
Encoding: 8448 8448 828
Width: 568
VWidth: 0
Flags: W
HStem: -2 42<411.786 516.086> 222 29<412.632 497.66> 400 40<65.77 129.96 198.036 240.006> 623 33<78.2391 152.811>
VStem: 8 55<442.316 503.53 573.099 607.49> 143 56<449.082 519.993 538.688 619.507> 329 54<68.0254 188.515>
LayerCount: 2
Fore
SplineSet
63 474 m 0
 63 451 82 440 95 440 c 0
 112 440 125 451 135 459 c 0
 140 463 142 467 142 482 c 10
 143 511 l 18
 143 523 139 525 128 522 c 0
 78 508 63 488 63 474 c 0
202 400 m 0
 165 400 152 431 147 431 c 0
 138 431 120 400 67 400 c 0
 40 400 8 436 8 459 c 0
 8 484 14 500 46 512 c 10
 125 540 l 18
 142 546 143 548 143 564 c 2
 143 587 l 26
 143 607 130 623 106 623 c 0
 90 623 68 618 63 610 c 0
 60 604 60 592 61 585 c 0
 62 577 31 570 16 566 c 0
 12 565 9 569 12 576 c 0
 18 591 21 601 37 614 c 0
 57 631 103 656 137 656 c 4
 168 656 200 631 199 603 c 10
 196 479 l 26
 196 462 198 440 217 440 c 0
 229 440 234 442 238 448 c 0
 243 455 253 439 251 433 c 0
 250 430 226 400 202 400 c 0
329 116 m 8
 329 191.01171875 390.98828125 251 466 251 c 16
 494 251 524 244 544 222 c 0
 552 212 541.983398438 199.271484375 532 191 c 24
 525.06640625 185.255859375 512 188 509 193 c 0
 496 214 483 222 451 222 c 8
 408.8515625 222 383 180.1484375 383 138 c 16
 383 80 414.415039062 40 464 40 c 16
 491 40 508 47 525 67 c 0
 531 74 550 60 548 53 c 0
 542 32 500 -2 440 -2 c 12
 376.818359375 -2 329 54 329 116 c 8
EndSplineSet
Refer: 1135 8260 S 1 0 0 1 256 0 2
Validated: 1
EndChar

StartChar: caron.alt2
Encoding: 65539 -1 1015
Width: 477
VWidth: 0
Flags: W
HStem: 449 217
LayerCount: 2
Fore
SplineSet
266 524 m 0
 301 569 324 598 361 648 c 0
 373.263 664.572 382.23 666 393 666 c 0
 406.04 666 419 664.65 419 652 c 0
 419 637.44 405 621 395 610 c 0
 358 568 300 504 268 467 c 0
 261.969 460.027 247 449 240 449 c 0
 233 449 215 460 209 467 c 0
 173 506 113 566 68 610 c 0
 57.3711 620.394 43 625.34 43 640 c 8
 43 661.63 70.1504 664 93 664 c 8
 114.51 664 132 661 144 643 c 0
 178 592 210 548 232 520 c 0
 248 500 248 500 266 524 c 0
EndSplineSet
Validated: 33
EndChar

StartChar: four.tablining
Encoding: 65568 -1 1089
Width: 480
VWidth: 0
Flags: W
HStem: -3 25<174.471 228.54 396.103 446.02> 175 56<92 258.175> 182 49<92 277 358.051 465.937> 439 20G<337.5 349.5>
VStem: 277 80<49.2483 181.926 231.076 445.795>
LayerCount: 2
Fore
SplineSet
92 240 m 6xd8
 90 237 88 231 92 231 c 4xd8
 164 231 189 231 265 231 c 4
 270 231 277 235 277 239 c 12
 277 311.15 277 364 277 424 c 4
 277 438 277.838 441.605 286 446 c 28
 305.741 456.63 333 459 342 459 c 4
 357 459 357 437 357 395 c 4
 357 342 357 303 357 236 c 12
 357 232.954 358.957 230.146 362 230 c 28
 400.567 228.146 425 229 461 231 c 4
 467 231 473.177 227.416 472 222 c 28
 468.476 205.786 458 185 451 185 c 0
 424 185 389 187 371 184 c 0
 366 183 358 179 358 178 c 0
 358 119 358 144 358 88 c 0
 358 41 405 28 436 22 c 0
 452 19 452 -3 436 -3 c 0
 379 -3 362.23 2 315 2 c 24
 263.873 2 238 -3 184 -3 c 0
 172 -3 167 19 184 22 c 0
 214 28 277 44 277 84 c 0
 277 152 277 141 277 173 c 0
 277 179 263 182 262 182 c 0xb8
 180 182 124 176 19 175 c 0
 13 175 7 184 10 188 c 0
 35 219 36 217 49 235 c 6
 315 614 l 2
 323.285 625.805 335 642 345 642 c 0
 352 642 354 642 364 642 c 0
 370 642 365.15 632.527 362 628 c 18
 92 240 l 6xd8
EndSplineSet
Validated: 33
Substitution2: "'pnum' Proportionalziffern lookup 8 subtable" four.lnum
Substitution2: "'onum' Minuskelziffern lookup 6 subtable" four.taboldstyle
EndChar

StartChar: i.TRK
Encoding: 65554 -1 1073
Width: 333
VWidth: 0
Flags: W
HStem: -4 25<33.4097 91.2126 244.217 301.111> 403 31<46.1484 92.0446 239.904 287.799> 506 110<122.847 209.153>
VStem: 111 110<517.847 604.153> 129 75<46.4248 378.557>
LayerCount: 2
Fore
SplineSet
166 616 m 24xf0
 196 616 221 591 221 561 c 24
 221 531 196 506 166 506 c 24
 136 506 111 531 111 561 c 24
 111 591 136 616 166 616 c 24xf0
42 -4 m 0
 31 -4 27 19 42 21 c 0
 70 25 89 29 112 46 c 24
 125 55 129 68 129 83 c 0
 129 202 129 223 129 350 c 0
 129 363 120 370 108 378 c 24
 88 392 73 395 51 403 c 0
 43 405 43 434 51 434 c 0
 106 434 123 432 168 432 c 24
 213 432 229 434 282 434 c 0
 293 434 291 405 282 403 c 0
 260 395 241 390 222 378 c 0
 212 371 204 363 204 350 c 0
 204 234 204 199 204 83 c 0xe8
 204 67 209 55 222 46 c 24
 246 29 264 26 291 21 c 0
 307 19 306 -4 291 -4 c 0
 240 -4 216 2 168 2 c 24
 119 2 92 -4 42 -4 c 0
EndSplineSet
Validated: 1
EndChar
